<?xml version="1.0" encoding="UTF-8" standalone="no"?>
<!DOCTYPE svg PUBLIC "-//W3C//DTD SVG 1.1//EN" "http://www.w3.org/Graphics/SVG/1.1/DTD/svg11.dtd">
<svg width="100%" height="100%" viewBox="0 0 536 536" version="1.1" xmlns="http://www.w3.org/2000/svg" xmlns:xlink="http://www.w3.org/1999/xlink" xml:space="preserve" xmlns:serif="http://www.serif.com/" style="fill-rule:evenodd;clip-rule:evenodd;stroke-linejoin:round;stroke-miterlimit:2;">
    <g id="a" transform="matrix(0.889054,0,0,0.92968,-833.032,655.837)">
        <g transform="matrix(1.21418,0,0,1.16112,-669.559,-734.831)">
            <rect x="1323.15" y="25.309" width="496.538" height="496.538" style="fill:rgb(163,226,226);"/>
        </g>
        <g transform="matrix(1.12479,0,0,1.07564,-551.279,-674.431)">
            <path d="M1354.08,108.559C1350.87,124.426 1330.16,368.928 1330.19,368.928C1330.06,368.921 1329.94,368.913 1329.81,368.906C1328.13,368.811 1326.44,368.751 1324.74,368.728C1333.73,276.901 1343.81,113.066 1344.42,107.857C1345.54,98.332 1342.83,91.111 1333.35,87.282C1330.41,86.096 1326.34,85.233 1323.15,85.218L1323.15,83.218C1460.95,83.218 1574,190.042 1583.94,325.331L1578.46,325.331C1579.06,321.834 1579.4,318.709 1579.62,316.74C1579.91,314.147 1579.92,307.408 1573.9,301.484C1569.52,297.167 1558.89,294.585 1549.31,297.465C1525.71,304.564 1491.59,324.014 1462.64,344.285C1436.37,362.678 1416.21,380.516 1398.81,396.818C1398.8,396.832 1398.63,396.659 1398.53,396.579C1397.64,395.817 1396.74,395.067 1395.83,394.332C1414.29,375.472 1438.41,353.491 1458.41,338.345C1514.48,295.891 1555.76,285.441 1558.59,284.297C1567.01,280.896 1569.33,274.264 1569.16,267.608C1569.1,265.056 1565.74,256.553 1562.58,253.43C1559.17,250.069 1550.02,248.315 1541.11,252.368C1519.15,262.356 1485.83,287.07 1460.41,310.538C1428.61,339.894 1407.93,366.7 1389.55,389.616C1389.61,389.66 1389.36,389.483 1389.27,389.417C1387.97,388.517 1386.66,387.643 1385.33,386.795C1400.53,365.243 1420.93,338.683 1444.61,315.545C1494.99,266.333 1539.32,241.615 1541.93,240.025C1549.71,235.301 1550.3,227.727 1548.31,220.417C1547.54,217.613 1543.05,209.625 1538.92,206.552C1534.48,203.246 1523.23,201.394 1515.12,206.894C1495.13,220.446 1469.28,251.141 1447.28,279.237C1418.05,316.569 1396.58,352.256 1377.85,382.419C1377.9,382.419 1377.69,382.334 1377.61,382.292C1375.86,381.358 1374.09,380.468 1372.29,379.624C1389.65,352.389 1407.85,323.28 1430.8,289.756C1469.27,233.568 1510.51,200.078 1512.79,198.046C1519.58,192.006 1519.25,184.773 1516.52,178.319C1515.47,175.844 1510.31,169.268 1506.05,167.234C1501.48,165.045 1493.47,165.007 1486.46,171.843C1469.17,188.689 1455.84,212.849 1428.98,254.172C1401.41,296.575 1381.65,340.479 1365.06,376.531C1365.06,376.51 1364.78,376.422 1364.64,376.369C1363.31,375.859 1361.97,375.373 1360.62,374.912C1373.71,343.362 1389.09,310.609 1410.46,273.549C1443.68,215.942 1476.13,168.244 1477.93,165.759C1483.27,158.377 1483,148.412 1477.78,142.235C1475.77,139.867 1469.28,134.84 1463.92,133.475C1458.15,132.005 1449.23,133.249 1444.06,141.578C1432.14,160.799 1422.51,180.349 1400.93,234.308C1385.65,272.515 1367.89,328.106 1353.15,372.641C1353.17,372.623 1352.95,372.588 1352.85,372.562C1351.32,372.156 1349.77,371.781 1348.21,371.437C1358.2,331.492 1371.59,290.684 1385.56,253.904C1409.18,191.739 1432.59,139.713 1433.93,136.952C1438.89,126.697 1435.46,117.978 1429.17,112.893C1426.76,110.942 1422.76,108.626 1417.24,108.29C1411.3,107.93 1404.69,110.171 1400.05,118.808C1398.76,121.214 1385.41,164.983 1372.15,218.551C1361.86,260.129 1350.87,322.205 1342.39,370.308C1342.38,370.282 1342.19,370.276 1342.1,370.261C1340.04,369.922 1337.97,369.638 1335.88,369.41C1355.04,265.006 1386.72,125.011 1387.7,120.11C1390.52,106.129 1387.44,100.468 1383.29,97.307C1381.14,95.672 1375.26,92.193 1368.23,93.132C1360.41,94.174 1356.22,98.002 1354.08,108.559Z" style="fill:rgb(24,73,73);"/>
        </g>
        <g transform="matrix(-1.12479,0,0,1.07564,3028.14,-674.431)">
            <path d="M1354.08,108.559C1350.87,124.426 1330.16,368.928 1330.19,368.928C1330.06,368.921 1329.94,368.913 1329.81,368.906C1328.13,368.811 1326.44,368.751 1324.74,368.728C1333.73,276.901 1343.81,113.066 1344.42,107.857C1345.54,98.332 1342.83,91.111 1333.35,87.282C1330.41,86.096 1326.34,85.233 1323.15,85.218L1323.15,83.218C1460.95,83.218 1574,190.042 1583.94,325.331L1578.46,325.331C1579.06,321.834 1579.4,318.709 1579.62,316.74C1579.91,314.147 1579.92,307.408 1573.9,301.484C1569.52,297.167 1558.89,294.585 1549.31,297.465C1525.71,304.564 1491.59,324.014 1462.64,344.285C1436.37,362.678 1416.21,380.516 1398.81,396.818C1398.8,396.832 1398.63,396.659 1398.53,396.579C1397.64,395.817 1396.74,395.067 1395.83,394.332C1414.29,375.472 1438.41,353.491 1458.41,338.345C1514.48,295.891 1555.76,285.441 1558.59,284.297C1567.01,280.896 1569.33,274.264 1569.16,267.608C1569.1,265.056 1565.74,256.553 1562.58,253.43C1559.17,250.069 1550.02,248.315 1541.11,252.368C1519.15,262.356 1485.83,287.07 1460.41,310.538C1428.61,339.894 1407.93,366.7 1389.55,389.616C1389.61,389.66 1389.36,389.483 1389.27,389.417C1387.97,388.517 1386.66,387.643 1385.33,386.795C1400.53,365.243 1420.93,338.683 1444.61,315.545C1494.99,266.333 1539.32,241.615 1541.93,240.025C1549.71,235.301 1550.3,227.727 1548.31,220.417C1547.54,217.613 1543.05,209.625 1538.92,206.552C1534.48,203.246 1523.23,201.394 1515.12,206.894C1495.13,220.446 1469.28,251.141 1447.28,279.237C1418.05,316.569 1396.58,352.256 1377.85,382.419C1377.9,382.419 1377.69,382.334 1377.61,382.292C1375.86,381.358 1374.09,380.468 1372.29,379.624C1389.65,352.389 1407.85,323.28 1430.8,289.756C1469.27,233.568 1510.51,200.078 1512.79,198.046C1519.58,192.006 1519.25,184.773 1516.52,178.319C1515.47,175.844 1510.31,169.268 1506.05,167.234C1501.48,165.045 1493.47,165.007 1486.46,171.843C1469.17,188.689 1455.84,212.849 1428.98,254.172C1401.41,296.575 1381.65,340.479 1365.06,376.531C1365.06,376.51 1364.78,376.422 1364.64,376.369C1363.31,375.859 1361.97,375.373 1360.62,374.912C1373.71,343.362 1389.09,310.609 1410.46,273.549C1443.68,215.942 1476.13,168.244 1477.93,165.759C1483.27,158.377 1483,148.412 1477.78,142.235C1475.77,139.867 1469.28,134.84 1463.92,133.475C1458.15,132.005 1449.23,133.249 1444.06,141.578C1432.14,160.799 1422.51,180.349 1400.93,234.308C1385.65,272.515 1367.89,328.106 1353.15,372.641C1353.17,372.623 1352.95,372.588 1352.85,372.562C1351.32,372.156 1349.77,371.781 1348.21,371.437C1358.2,331.492 1371.59,290.684 1385.56,253.904C1409.18,191.739 1432.59,139.713 1433.93,136.952C1438.89,126.697 1435.46,117.978 1429.17,112.893C1426.76,110.942 1422.76,108.626 1417.24,108.29C1411.3,107.93 1404.69,110.171 1400.05,118.808C1398.76,121.214 1385.41,164.983 1372.15,218.551C1361.86,260.129 1350.87,322.205 1342.39,370.308C1342.38,370.282 1342.19,370.276 1342.1,370.261C1340.04,369.922 1337.97,369.638 1335.88,369.41C1355.04,265.006 1386.72,125.011 1387.7,120.11C1390.52,106.129 1387.44,100.468 1383.29,97.307C1381.14,95.672 1375.26,92.193 1368.23,93.132C1360.41,94.174 1356.22,98.002 1354.08,108.559Z" style="fill:rgb(24,73,73);"/>
        </g>
        <g transform="matrix(1.12479,0,0,1.07564,-550.154,-1070.29)">
            <path d="M1590.15,718.384C1697.25,718.385 1789.41,782.915 1829.81,875.185L1808.95,875.185C1816.71,870.461 1817.3,862.89 1815.31,855.584C1814.54,852.78 1810.05,844.791 1805.92,841.719C1801.48,838.413 1790.23,836.561 1782.12,842.06C1771.51,849.255 1759.24,861.281 1746.78,875.185L1736.93,875.185C1760.11,849.353 1778.3,834.543 1779.79,833.212C1786.58,827.173 1786.25,819.939 1783.52,813.486C1782.47,811.011 1777.31,804.435 1773.05,802.401C1768.48,800.211 1760.47,800.173 1753.46,807.01C1738.25,821.834 1726.09,842.322 1705.09,875.185L1697.33,875.185C1722.58,833.622 1743.5,802.907 1744.93,800.926C1750.27,793.544 1750,783.579 1744.78,777.402C1742.77,775.033 1736.28,770.007 1730.92,768.641C1725.15,767.171 1716.23,768.416 1711.06,776.745C1699.14,795.966 1689.51,815.516 1667.93,869.475C1667.18,871.338 1666.43,873.242 1665.68,875.185L1657.89,875.185C1679.59,819.333 1699.69,774.671 1700.93,772.118C1705.89,761.864 1702.47,753.145 1696.17,748.059C1693.76,746.109 1689.76,743.792 1684.24,743.457C1678.3,743.096 1671.69,745.338 1667.05,753.975C1665.76,756.381 1652.41,800.15 1639.15,853.718C1637.5,860.393 1635.83,867.596 1634.15,875.185L1628.68,875.185C1642.22,810.909 1654.11,758.249 1654.7,755.276C1657.52,741.296 1654.44,735.635 1650.29,732.474C1648.14,730.838 1642.26,727.36 1635.23,728.299C1627.41,729.341 1623.22,733.169 1621.08,743.725C1619.52,751.463 1613.79,813.573 1608.34,875.185L1602.28,875.185C1607.23,807.146 1611.05,746.169 1611.42,743.024C1612.54,733.498 1609.83,726.278 1600.35,722.449C1597.41,721.262 1593.34,720.4 1590.15,720.385C1586.95,720.4 1582.89,721.262 1579.95,722.449C1570.47,726.278 1567.76,733.498 1568.88,743.024C1569.25,746.169 1573.07,807.146 1578.02,875.185L1571.96,875.185C1566.51,813.573 1560.78,751.463 1559.22,743.725C1557.08,733.169 1552.88,729.341 1545.07,728.299C1538.04,727.36 1532.16,730.838 1530.01,732.474C1525.85,735.635 1522.78,741.296 1525.59,755.276C1526.19,758.249 1538.08,810.909 1551.61,875.185L1546.14,875.185C1544.47,867.596 1542.8,860.393 1541.15,853.718C1527.89,800.15 1514.53,756.381 1513.24,753.975C1508.61,745.338 1502,743.096 1496.06,743.457C1490.54,743.792 1486.54,746.109 1484.12,748.059C1477.83,753.145 1474.41,761.864 1479.37,772.118C1480.61,774.671 1500.71,819.333 1522.4,875.185L1514.62,875.185C1513.87,873.242 1513.11,871.338 1512.37,869.475C1490.79,815.516 1481.15,795.966 1469.23,776.745C1464.07,768.416 1455.15,767.171 1449.38,768.641C1444.02,770.007 1437.53,775.033 1435.52,777.402C1430.3,783.579 1430.03,793.544 1435.37,800.926C1436.8,802.907 1457.71,833.622 1482.97,875.185L1475.21,875.185C1454.2,842.322 1442.05,821.834 1426.84,807.01C1419.83,800.173 1411.82,800.211 1407.25,802.401C1402.99,804.435 1397.82,811.011 1396.78,813.486C1394.04,819.939 1393.72,827.173 1400.51,833.212C1402,834.543 1420.19,849.353 1443.37,875.185L1433.52,875.185C1421.06,861.281 1408.79,849.255 1398.18,842.06C1390.07,836.561 1378.82,838.413 1374.37,841.719C1370.25,844.791 1365.76,852.78 1364.99,855.584C1363,862.89 1363.58,870.461 1371.35,875.185L1350.49,875.185C1390.89,782.915 1483.04,718.385 1590.15,718.384Z" style="fill:rgb(24,73,73);"/>
        </g>
        <g transform="matrix(1.12479,0,0,1.07564,-550.154,-1071)">
            <path d="M1829.81,339.852C1841.39,366.299 1848.73,395.025 1850.94,425.165L1845.46,425.165C1846.06,421.667 1846.4,418.542 1846.62,416.573C1846.91,413.981 1846.92,407.242 1840.9,401.317C1836.52,397 1825.89,394.418 1816.31,397.299C1792.71,404.397 1758.59,423.847 1729.64,444.118C1703.37,462.512 1683.21,480.349 1665.81,496.652C1665.8,496.665 1665.63,496.492 1665.53,496.412C1664.64,495.65 1663.74,494.901 1662.83,494.165C1681.29,475.306 1705.41,453.324 1725.41,438.179C1781.48,395.724 1822.76,385.275 1825.59,384.13C1834.01,380.729 1836.33,374.097 1836.16,367.442C1836.1,364.889 1832.74,356.387 1829.58,353.263C1826.17,349.902 1817.02,348.148 1808.11,352.201C1786.15,362.189 1752.83,386.904 1727.41,410.372C1695.61,439.727 1674.93,466.533 1656.55,489.45C1656.61,489.493 1656.36,489.317 1656.27,489.25C1654.97,488.35 1653.66,487.476 1652.33,486.628C1667.53,465.076 1687.93,438.516 1711.61,415.378C1761.99,366.166 1806.32,341.449 1808.93,339.859L1808.95,339.852L1829.81,339.852ZM1371.35,339.852L1371.36,339.859C1373.98,341.449 1418.31,366.166 1468.69,415.378C1492.37,438.516 1512.77,465.076 1527.97,486.628C1526.64,487.476 1525.33,488.35 1524.03,489.25C1523.94,489.317 1523.68,489.493 1523.75,489.45C1505.37,466.533 1484.69,439.727 1452.89,410.372C1427.47,386.904 1394.15,362.189 1372.19,352.201C1363.28,348.148 1354.12,349.902 1350.72,353.263C1347.56,356.387 1344.2,364.889 1344.13,367.442C1343.97,374.097 1346.29,380.729 1354.71,384.13C1357.54,385.275 1398.82,395.724 1454.89,438.179C1474.89,453.324 1499,475.306 1517.47,494.165C1516.56,494.901 1515.65,495.65 1514.76,496.412C1514.67,496.492 1514.5,496.665 1514.49,496.652C1497.09,480.349 1476.93,462.512 1450.66,444.118C1421.71,423.847 1387.59,404.397 1363.99,397.299C1354.41,394.418 1343.78,397 1339.4,401.317C1333.38,407.242 1333.39,413.981 1333.68,416.573C1333.89,418.542 1334.24,421.666 1334.84,425.165L1329.36,425.165C1331.57,395.026 1338.9,366.299 1350.49,339.852L1371.35,339.852ZM1746.78,339.852C1735.77,352.138 1724.6,365.89 1714.28,379.071C1685.05,416.4 1663.58,452.084 1644.86,482.245C1644.86,482.249 1644.86,482.252 1644.85,482.252L1644.86,482.245C1644.83,482.223 1644.68,482.16 1644.61,482.125C1642.86,481.192 1641.09,480.302 1639.29,479.457C1656.65,452.223 1674.85,423.113 1697.8,389.589C1711.09,370.182 1724.7,353.482 1736.93,339.852L1746.78,339.852ZM1443.37,339.852C1455.59,353.482 1469.21,370.182 1482.5,389.589C1505.45,423.113 1523.65,452.223 1541.01,479.457C1539.21,480.302 1537.43,481.192 1535.68,482.125C1535.62,482.16 1535.47,482.223 1535.44,482.245L1535.45,482.252C1535.44,482.252 1535.44,482.249 1535.44,482.245C1516.71,452.084 1495.24,416.4 1466.02,379.071C1455.7,365.89 1444.53,352.138 1433.52,339.852L1443.37,339.852ZM1705.09,339.852C1702.23,344.334 1699.2,349.046 1695.98,354.006C1668.41,396.408 1648.65,440.312 1632.06,476.364C1632.06,476.344 1631.78,476.256 1631.64,476.202C1630.31,475.692 1628.97,475.207 1627.62,474.745C1640.71,443.195 1656.09,410.443 1677.46,373.383C1684.2,361.7 1690.9,350.425 1697.33,339.852L1705.09,339.852ZM1482.97,339.852C1489.39,350.425 1496.1,361.7 1502.84,373.383C1524.21,410.443 1539.59,443.195 1552.68,474.745C1551.33,475.207 1549.99,475.692 1548.66,476.202C1548.52,476.256 1548.24,476.344 1548.24,476.364C1531.64,440.312 1511.88,396.408 1484.32,354.006C1481.1,349.046 1478.07,344.334 1475.21,339.852L1482.97,339.852ZM1665.68,339.852C1650.92,377.742 1634.17,430.108 1620.15,472.471L1620.15,472.475L1620.15,472.471C1620.14,472.452 1619.94,472.42 1619.85,472.395C1618.32,471.989 1616.77,471.614 1615.21,471.27C1625.2,431.325 1638.59,390.518 1652.56,353.737C1654.34,349.045 1656.12,344.411 1657.89,339.852L1665.68,339.852ZM1522.4,339.852C1524.17,344.411 1525.96,349.045 1527.74,353.737C1541.71,390.518 1555.1,431.325 1565.09,471.27C1563.53,471.614 1561.98,471.989 1560.45,472.395C1560.35,472.42 1560.16,472.451 1560.15,472.47L1560.15,472.475C1560.14,472.473 1560.14,472.472 1560.15,472.47C1546.13,430.107 1529.38,377.742 1514.62,339.852L1522.4,339.852ZM1634.15,339.852C1625.39,379.534 1616.51,429.761 1609.39,470.142C1609.38,470.115 1609.19,470.11 1609.1,470.094C1607.04,469.756 1604.97,469.472 1602.88,469.243C1610.42,428.157 1619.9,381.559 1628.68,339.852L1634.15,339.852ZM1551.61,339.852C1560.4,381.559 1569.88,428.157 1577.42,469.243C1575.33,469.472 1573.26,469.756 1571.2,470.094C1571.1,470.11 1570.91,470.115 1570.91,470.142C1563.79,429.761 1554.9,379.534 1546.14,339.852L1551.61,339.852ZM1608.34,339.852C1602.61,404.582 1597.18,468.761 1597.19,468.761C1597.06,468.754 1596.94,468.747 1596.81,468.739C1595.13,468.644 1593.44,468.584 1591.74,468.562C1595.3,432.18 1599.03,384.496 1602.28,339.852L1608.34,339.852ZM1578.02,339.852C1581.26,384.496 1585,432.18 1588.56,468.562C1586.86,468.584 1585.17,468.644 1583.49,468.739C1583.36,468.747 1583.24,468.754 1583.11,468.761C1583.12,468.761 1577.69,404.582 1571.96,339.852L1578.02,339.852Z" style="fill:rgb(24,73,73);"/>
        </g>
    </g>
</svg>
