<?xml version="1.0" encoding="UTF-8" standalone="no"?>
<!DOCTYPE svg PUBLIC "-//W3C//DTD SVG 1.1//EN" "http://www.w3.org/Graphics/SVG/1.1/DTD/svg11.dtd">
<svg width="100%" height="100%" viewBox="0 0 100 100" version="1.1" xmlns="http://www.w3.org/2000/svg" xmlns:xlink="http://www.w3.org/1999/xlink" xml:space="preserve" xmlns:serif="http://www.serif.com/" style="fill-rule:evenodd;clip-rule:evenodd;stroke-linejoin:round;stroke-miterlimit:2;">
    <g transform="matrix(0.192097,0,0,0.192097,0.471435,0.931159)">
        <path d="M352.089,32.124C279.773,31.937 207.445,30.54 135.15,32.147C131.02,32.265 127.361,35.857 127.348,40.183L127.348,93.984C126.613,100.036 123.446,105.817 117.667,108.009C109.696,111.032 99.83,105.876 97.783,97.573C97.495,96.403 97.493,95.18 97.348,93.984C97.348,75.961 97.292,57.938 97.348,39.915C97.536,20.308 114.399,2.211 135.338,2.144L367.089,2.144L368.331,2.295C368.352,2.232 368.374,2.2 368.396,2.201C369.029,2.275 369.654,2.385 370.268,2.53L370.678,2.58C370.884,2.658 371.08,2.731 371.268,2.8C371.8,2.962 372.323,3.15 372.834,3.366C374.325,3.914 375.303,4.382 377.035,5.917C377.231,6.09 377.421,6.269 377.605,6.454L377.695,6.538L506.534,135.377C506.675,135.526 506.8,135.667 506.911,135.8C508.69,137.728 509.972,140.104 510.552,142.646C510.801,143.737 510.803,144.871 510.928,145.984C510.928,254.223 511.26,362.463 510.927,470.702C510.738,490.3 493.981,508.27 473.157,508.471C360.478,508.818 247.797,508.818 135.118,508.471C115.397,508.281 97.412,491.158 97.348,470.481L97.348,435.452C97.731,432.293 97.554,431.362 99.066,428.481C101.286,424.252 105.734,421.145 110.539,420.561C113.77,420.169 114.577,420.665 117.667,421.427C118.734,421.987 119.801,422.547 120.869,423.107C123.628,425.552 126.048,428.359 126.912,431.862C127.2,433.033 127.202,434.256 127.348,435.452C127.348,447.192 127.09,458.934 127.35,470.67C127.468,474.78 131.151,478.432 135.309,478.472C247.914,478.818 360.548,480.952 473.126,478.469C477.247,478.351 480.915,474.759 480.928,470.434L480.928,160.984C450.572,160.984 420.215,161.079 389.859,160.983C370.285,160.796 352.153,143.989 352.089,122.992L352.089,32.124ZM431.508,413.948L183.266,413.948C175.909,413.651 169.25,407.962 168.375,400.756C167.456,393.184 173.175,385.391 180.859,384.142C181.921,383.969 182.194,383.991 183.266,383.948L431.508,383.948C431.911,383.964 432.313,383.98 432.715,383.996C433.78,384.125 434.054,384.126 435.098,384.383C442.887,386.303 448.168,395.347 445.916,403.121C444.345,408.546 439.476,412.849 433.914,413.753C432.853,413.926 432.58,413.904 431.508,413.948ZM206.774,257.652L207.949,257.699C208.985,257.821 209.252,257.822 210.269,258.065C219.327,260.236 224.683,272.065 219.593,280.442C219.049,281.336 218.862,281.526 218.219,282.348L122.658,395.148C117.231,401.065 107.54,402.076 101.434,396.826C100.635,396.14 100.478,395.922 99.768,395.148L4.207,282.348C3.564,281.526 3.377,281.336 2.834,280.442C-2.162,272.221 3.05,259.459 13.31,257.837C14.344,257.673 14.609,257.693 15.652,257.652L45.852,257.652L45.852,143.984L45.899,142.807C46.79,135.276 53.16,129.286 60.852,128.984L161.574,128.984C161.966,128.999 162.358,129.014 162.751,129.03C170.281,129.921 176.272,136.292 176.574,143.984L176.574,257.652L206.774,257.652ZM146.574,158.984L75.852,158.984L75.852,272.652L75.806,273.829C74.915,281.36 68.545,287.35 60.852,287.652L48.019,287.652L111.213,362.246L174.407,287.652L161.574,287.652L160.397,287.606C152.84,286.712 146.876,280.345 146.574,272.652L146.574,158.984ZM431.508,319.311L253.266,319.311C252.356,319.28 252.126,319.296 251.223,319.172C244.117,318.195 238.266,311.518 238.266,304.311C238.266,297.146 244.083,290.432 251.223,289.451C252.126,289.327 252.356,289.343 253.266,289.311L431.508,289.311C431.849,289.323 432.191,289.335 432.532,289.346C433.437,289.439 433.668,289.44 434.56,289.625C442.814,291.34 448.59,301.039 445.642,309.335C443.815,314.476 438.976,318.426 433.551,319.172C432.648,319.296 432.417,319.28 431.508,319.311ZM431.508,224.675L223.266,224.675C222.293,224.64 222.046,224.658 221.082,224.516C212.149,223.201 205.749,212.543 209.46,203.809C211.733,198.46 217.282,194.894 223.266,194.675L431.508,194.675C431.873,194.689 432.238,194.702 432.603,194.715C440.692,195.605 447.316,203.154 446.418,211.316C445.701,217.83 440.265,223.548 433.692,224.516C432.728,224.657 432.481,224.64 431.508,224.675ZM390.127,130.984L459.715,130.984L382.035,53.303C381.873,78.15 381.442,93.721 382.091,123.182C382.21,127.319 385.851,130.97 390.127,130.984Z"/>
    </g>
</svg>
