<?xml version="1.0" encoding="UTF-8" standalone="no"?>
<!DOCTYPE svg PUBLIC "-//W3C//DTD SVG 1.1//EN" "http://www.w3.org/Graphics/SVG/1.1/DTD/svg11.dtd">
<svg width="100%" height="100%" viewBox="0 0 5433 4086" version="1.1" xmlns="http://www.w3.org/2000/svg" xmlns:xlink="http://www.w3.org/1999/xlink" xml:space="preserve" xmlns:serif="http://www.serif.com/" style="fill-rule:evenodd;clip-rule:evenodd;stroke-linejoin:round;stroke-miterlimit:2;">
    <g id="Final" transform="matrix(3.60684,0.160001,-0.160001,3.60684,-1160.98,-1106.05)">
        <path d="M1235.78,1103.7C1251.25,1094.27 1265.62,1085.82 1278.88,1078.17C1277.76,1055.13 1281.62,1031.95 1288.15,1013.33C1297.44,986.863 1319.14,964.035 1340.43,952.44C1356.93,943.449 1393.2,931.673 1419.82,949.136C1437.99,961.055 1444.97,990.49 1433.9,1015.58C1418.27,1051.03 1383.18,1064.15 1332.9,1091.46C1332.22,1091.83 1331.53,1092.2 1330.85,1092.58C1335.87,1112.68 1347.63,1123.77 1378.4,1118.51C1412.35,1112.72 1439.66,1070 1450.47,1038.01C1454.83,1019.01 1460.46,997.072 1467.74,971.251C1484.44,911.955 1494.74,905.251 1506.07,903.918C1517.4,902.584 1529.4,910.223 1533.07,917.571C1536.74,924.918 1533.4,933.251 1523.07,977.251C1522.51,979.614 1521.97,982.062 1521.44,984.58C1529.27,968.88 1538.58,953.611 1549.61,940.04C1571.23,913.463 1586.7,898.11 1599.05,888.605C1609.98,880.186 1620.95,873.717 1633.64,871.572C1639.02,870.662 1644.58,872.028 1650.01,875.015C1657.4,879.083 1664.79,891.583 1650.01,919.583C1635.23,947.583 1603.38,1033.83 1605.16,1069.08C1617,1063.39 1645.56,1022.32 1663.11,962.858C1665.64,936.29 1672.77,915.269 1682.28,898.985C1693.97,878.969 1709.81,859.526 1746.43,846.706C1768.08,839.124 1789.75,840.464 1801.78,848.091C1819.53,859.341 1829.78,885.653 1817.28,911.153C1804.78,936.653 1777.28,928.903 1764.53,927.903C1751.78,926.903 1743.53,930.591 1731.28,949.591C1719.03,968.591 1715.53,1004.09 1734.28,1012.98C1751.76,1021.26 1767.28,994.091 1777.28,974.341C1787.28,954.591 1784.53,944.091 1808.78,946.583C1820.38,947.775 1826.88,956.433 1824.66,972.265C1823.12,983.213 1817.74,1006.49 1816.42,1017C1812.5,1048.14 1811.77,1090.22 1824.94,1130.82C1844.61,1191.49 1856.28,1207.82 1866.94,1227.15C1877.61,1246.49 1882.94,1266.49 1866.94,1280.82C1850.94,1295.15 1829.94,1291.15 1822.28,1286.82C1814.61,1282.49 1777.53,1265.5 1631.53,1286.82C1451.19,1313.15 1353.55,1384.25 1315.53,1372.49C1283.49,1362.57 1281.73,1323.79 1283.53,1314.82C1286.59,1299.57 1287.53,1290.49 1332.86,1271.82C1378.19,1253.15 1534.86,1208.82 1631.53,1201.15C1728.19,1193.49 1754.53,1196.15 1776.19,1201.15C1757.14,1144.83 1752.42,1101.69 1754.9,1067.14C1734.39,1074.33 1712.83,1070.58 1701.78,1065.09C1690.32,1059.4 1678.92,1049.31 1671.31,1032.33C1630.95,1107.32 1618.72,1122.48 1599.05,1133.08C1573.06,1147.08 1548.59,1132.08 1541.71,1109.08C1535.53,1088.41 1545.43,1040.26 1575.42,972.265C1545.64,1004.09 1512.41,1054.55 1508.97,1132.27C1508.91,1133.72 1508.84,1135.12 1508.76,1136.47C1509.96,1158.43 1509.84,1176.41 1486,1185.58C1457.4,1196.58 1433.74,1174.39 1435.4,1139.15C1435.56,1135.88 1435.74,1132.54 1435.98,1129.1C1426.14,1139.94 1415.98,1146.78 1401.69,1153.83C1370.11,1169.44 1315.03,1174.54 1291.73,1129.57C1289.83,1125.89 1288.15,1122.09 1286.7,1118.17C1286.7,1118.17 1268.68,1129.33 1259.57,1135.22C1269.77,1153.55 1277.44,1177.71 1273.95,1207.46C1267.02,1266.6 1224.45,1272.42 1201.95,1265.67C1184.39,1260.4 1149.23,1224.39 1133.2,1231.67C1119.7,1237.79 1105.95,1233.42 1099.7,1222.17C1099.7,1222.17 1091.7,1206.32 1101.53,1193.63C1104.61,1189.65 1110.17,1184.93 1113.71,1181.92C1132.84,1165.62 1158.86,1150.14 1189.28,1131.95C1176.71,1118.92 1164.67,1105.76 1162.2,1089.42C1157.62,1059.08 1167.33,1037.42 1187.95,1023.29C1204.77,1011.77 1225.17,1009.88 1235.7,1010.54C1245.7,1011.17 1251.45,1021.54 1250.7,1029.29C1249.95,1037.04 1247.45,1042.71 1241.7,1045.58C1235.95,1048.46 1222.2,1047.96 1216.95,1059.46C1211.7,1070.96 1217.45,1085.46 1227.45,1095.46C1229.27,1097.28 1232.22,1100.03 1235.78,1103.7ZM997.946,980.561C996.286,950.316 995.847,921.005 997.146,894.063C998.563,864.648 1000.19,836.688 1002.16,809.858C974.344,835.89 947.537,849.194 926.449,856.641C888.902,869.9 831.445,864.804 805.104,843.51C784.239,826.642 751.521,804.676 752.437,729.51C753.543,638.849 787.104,604.51 826.771,575.51C866.437,546.51 940.437,530.843 976.437,575.51C997.281,601.371 993.825,640.461 988.308,658.65C974.245,705.013 927.6,736.638 906.46,748.919C884.011,761.96 857.308,773.828 829.694,781.328C833.753,789.628 839.304,796.614 846.562,801.551C878.281,823.128 920.723,812.976 953.153,789.051C975.576,772.508 994.572,747.931 1010.58,721.037C1020.96,634.698 1037.65,557.189 1066.88,474.063C1114.12,339.73 1146.31,327.063 1166.31,321.285C1179.33,317.525 1195.76,326.035 1204.43,341.003C1214.83,358.943 1212.83,385.417 1211.84,393.271C1206.63,434.388 1178.12,484.878 1112.71,624.724C1105.6,648.409 1099.5,671.35 1094.23,693.661C1121.77,675.624 1155.47,646.452 1187.37,612.65C1197.33,602.098 1208.68,587.853 1220.6,571.608C1243.48,476.741 1279.31,377.378 1289.27,357.843C1302.27,332.343 1328.64,257.016 1382.49,252.285C1401.91,250.578 1424.96,254.926 1416.84,315.093C1409.72,367.827 1338.8,482.03 1290.18,554.776C1285.1,568.234 1280.27,581.89 1275.77,595.65C1228.77,739.456 1236.27,809.843 1232.77,831.96C1229.27,854.077 1195.27,847.843 1193.37,832.164C1191.56,817.248 1191.12,759.514 1202.52,668.992C1164.43,710.032 1119.59,748.388 1080.49,760.402C1070.02,819.811 1064.86,875.019 1061.37,928.397C1060.97,934.497 1060.64,940.894 1060.38,947.553C1137.17,907.701 1239.83,857.265 1358.58,807.709C1523.33,738.959 1605.52,715.936 1684.83,699.334C1702.52,695.632 1722.75,706.784 1728.08,725.451C1733.41,744.117 1727.45,768.069 1700.41,777.451C1655.5,793.034 1483.69,837.164 1280.33,920.784C1218.29,946.295 1130.79,985.085 1059.73,1017.22C1061.43,1143.84 1075.8,1302.04 1078.98,1315.81C1082.98,1333.15 1075.98,1343.81 1066.88,1343.42C1057.78,1343.04 1053.65,1339.81 1050.37,1327.91C1047.98,1319.25 1016.67,1181.47 1002.86,1043.11C972.384,1057.09 949.84,1067.62 941.329,1071.78C919.607,1082.42 896.479,1084.38 891.079,1071.78C885.679,1059.18 878.279,1044.98 929.679,1017.58C944.112,1009.89 967.291,997.049 997.946,980.561ZM1215.93,1164.7C1204.23,1172.96 1192.7,1181.42 1181.55,1189.94C1198.33,1198.85 1204.51,1211.8 1217.58,1204.46C1222.96,1201.44 1223.36,1188.59 1219.95,1175.17C1219.03,1171.53 1217.66,1168.06 1215.93,1164.7ZM613.711,893.826C637.561,859.862 639.349,839.779 637.881,805.708C635.68,754.655 633.104,706.961 634.85,643.037C638.088,524.48 643.061,437.909 688.587,336.339C694.173,323.875 714.94,311.802 737.734,322.4C760.529,332.999 763.229,346.982 756.165,377.139C749.101,407.297 724.161,510.816 720.896,591.714C717.968,664.284 719.627,710.013 720.667,746.6C723.588,849.302 725.436,863.276 706.031,902.553C683.557,948.041 627.741,1001.56 559.931,1046.23C481.482,1097.9 440.107,1100.15 413.689,1101.31C413.049,1101.37 412.408,1101.4 411.76,1101.41C400.703,1101.63 390.604,1097.54 382.35,1088.58C374.096,1079.62 369.668,1058.92 402.575,1026.49C419.853,1009.47 456.857,968.745 477.436,934.411C498.74,898.867 516.907,874.532 527.4,814.224C535.489,767.727 530.641,725.887 531.749,719.638C533.972,707.097 549.208,701.948 559.162,715.568C568.096,727.792 576.626,771.945 569.854,845.396C564.675,901.575 543.1,952.714 534.005,968.991C562.449,951.358 587.976,930.477 613.711,893.826ZM1327.23,1050.69C1327.23,1050.69 1342.37,1042.13 1347.57,1039C1358.84,1032.2 1371.79,1023.8 1377.9,1019.08C1390.21,1009.58 1390.2,999.792 1387.89,992.084C1385.36,983.67 1373.99,983.375 1356.4,996.084C1335.1,1011.48 1328.28,1030.2 1327.23,1050.69ZM829.615,781.349L829.694,781.328L829.665,781.269L829.615,781.349ZM820.761,738.277C851.128,725.513 915.221,692.792 924.812,658.65C934.812,623.051 906.062,623.498 896.562,624.65C887.062,625.801 862.312,628.248 839.562,663.65C827.937,681.74 820.424,710.823 820.761,738.277L820.583,738.352L820.511,738.382L820.77,738.898L820.762,738.392L820.761,738.277Z"/>
    </g>
</svg>
