<?xml version="1.0" encoding="UTF-8" standalone="no"?><!DOCTYPE svg PUBLIC "-//W3C//DTD SVG 1.1//EN" "http://www.w3.org/Graphics/SVG/1.1/DTD/svg11.dtd"><svg width="100%" height="100%" viewBox="0 0 8 7" version="1.1" xmlns="http://www.w3.org/2000/svg" xmlns:xlink="http://www.w3.org/1999/xlink" xml:space="preserve" xmlns:serif="http://www.serif.com/" style="fill-rule:evenodd;clip-rule:evenodd;stroke-linejoin:round;stroke-miterlimit:2;"><g id="Layer-3-copy-3" serif:id="Layer 3 copy 3"><path d="M6.807,3.414c-0.179,-0.187 -0.248,-0.275 -0.474,-0.507c-0.311,-0.32 -0.405,-0.399 -0.647,-0.357c-0.223,0.038 -0.147,0.268 -0.298,0.482c-0.182,0.256 -0.642,0.128 -0.87,-0.04c-0.228,-0.169 -0.414,-0.556 -0.206,-0.843c0.224,-0.31 0.518,-0.111 0.647,-0.31c0.112,-0.174 -0.086,-0.515 -0.299,-0.728c-0.209,-0.209 -0.378,-0.379 -0.476,-0.478c-0.52,-0.524 -0.533,-0.525 -1.06,0.003c-0.128,0.128 -0.369,0.37 -0.661,0.661c-0.269,0.269 -0.218,0.58 -0.086,0.703c0.132,0.122 0.228,0.163 0.47,0.148c0.079,-0.004 0.466,0.271 0.18,0.719c-0.286,0.448 -0.663,0.644 -0.949,0.732c-0.287,0.088 -0.554,-0.168 -0.558,-0.547c-0.004,-0.379 -0.334,-0.454 -0.613,-0.199c-0.202,0.184 -0.375,0.355 -0.505,0.488c-0.243,0.249 -0.18,0.422 -0.023,0.602c0.022,0.009 0.038,0.019 0.048,0.03c0.166,0.165 1.118,1.257 1.314,1.486c0.093,0.11 0.235,0.265 0.317,0.359c0.111,0.126 0.067,0.126 0.342,0.121c0.447,-0.009 0.533,-0.044 0.671,-0.247c0.127,-0.187 -0.091,-0.292 -0.139,-0.55c-0.059,-0.308 0.353,-0.55 0.633,-0.597c0.28,-0.047 0.687,0.088 0.749,0.437c0.067,0.377 -0.28,0.45 -0.226,0.681c0.027,0.116 0.166,0.197 0.336,0.243c0.125,0.034 0.217,0.071 0.333,0.079c0.116,0.007 0.172,0.014 0.241,-0.023c0.114,-0.06 0.24,-0.212 0.491,-0.503c0.251,-0.29 1.147,-1.321 1.313,-1.486c0.219,-0.259 0.2,-0.355 0.005,-0.559" style="fill:#184949;fill-rule:nonzero;"/></g></svg>