<?xml version="1.0" encoding="UTF-8" standalone="no"?><!DOCTYPE svg PUBLIC "-//W3C//DTD SVG 1.1//EN" "http://www.w3.org/Graphics/SVG/1.1/DTD/svg11.dtd"><svg width="100%" height="100%" viewBox="0 0 30 25" version="1.1" xmlns="http://www.w3.org/2000/svg" xmlns:xlink="http://www.w3.org/1999/xlink" xml:space="preserve" xmlns:serif="http://www.serif.com/" style="fill-rule:evenodd;clip-rule:evenodd;stroke-linejoin:round;stroke-miterlimit:2;"><path d="M26.456,12.103c1.835,1.221 3.044,3.306 3.044,5.672c0,3.758 -3.051,6.808 -6.808,6.808c-2.338,0 -4.402,-1.181 -5.628,-2.978l-16.564,0l0,-21.188l25.956,-0l-0,11.686Zm-2.782,4.69l-0,-2.471l-1.964,0l-0,2.471l-2.471,-0l-0,1.964l2.471,0l-0,2.471l1.964,0l-0,-2.471l2.471,0l-0,-1.964l-2.471,-0Zm0.818,-5.584c-0.574,-0.158 -1.177,-0.242 -1.8,-0.242c-3.758,-0 -6.808,3.051 -6.808,6.808c-0,0.647 0.09,1.272 0.259,1.866l-13.679,-0l0,-17.26l22.028,-0l-0,8.828Zm-2.036,-6.767l-0,2.249l-9.076,5.346l-8.88,-5.228l0,-2.291l8.88,5.18l9.076,-5.256Z"/></svg>