<?xml version="1.0" encoding="UTF-8" standalone="no"?>
<!DOCTYPE svg PUBLIC "-//W3C//DTD SVG 1.1//EN" "http://www.w3.org/Graphics/SVG/1.1/DTD/svg11.dtd">
<svg width="100%" height="100%" viewBox="0 0 469 794" version="1.1" xmlns="http://www.w3.org/2000/svg" xmlns:xlink="http://www.w3.org/1999/xlink" xml:space="preserve" xmlns:serif="http://www.serif.com/" style="fill-rule:evenodd;clip-rule:evenodd;stroke-linejoin:round;stroke-miterlimit:2;">
    <g transform="matrix(1,0,0,1,56.51,-228.276)">
        <g id="I" transform="matrix(1,0,0,1,-949.82,-1.11857)">
            <rect x="1325.73" y="232.344" width="33.578" height="111.978" style="fill:white;fill-rule:nonzero;"/>
        </g>
        <g id="I1" serif:id="I" transform="matrix(1,0,0,1,-873.598,190.215)">
            <path d="M818.859,783.216L895.88,827.684L894.864,829.443L817.843,784.975L818.859,783.216ZM832.307,759.922L909.329,804.39L907.631,807.331L830.61,762.863L832.307,759.922ZM845.756,736.628L922.777,781.096L920.588,784.888L843.567,740.42L845.756,736.628ZM859.249,713.257L936.271,757.725L933.768,762.059L856.747,717.591L859.249,713.257ZM872.787,689.808L949.809,734.277L946.502,740.003L869.481,695.535L872.787,689.808ZM886.147,666.669L963.168,711.138L959.459,717.561L882.438,673.093L886.147,666.669ZM899.461,643.608L976.483,688.076L972.417,695.118L895.396,650.65L899.461,643.608ZM913.089,620.004L990.11,664.473L985.374,672.676L908.353,628.208L913.089,620.004ZM926.538,596.711L1003.56,641.179L998.331,650.233L921.31,605.765L926.538,596.711ZM940.12,573.185L1017.14,617.653L1011.29,627.791L934.267,583.323L940.12,573.185ZM953.48,550.046L1030.5,594.514L1024.02,605.735L947.001,561.267L953.48,550.046ZM966.928,526.752L1043.95,571.22L1037.2,582.906L960.182,538.438L966.928,526.752ZM980.511,503.226L1057.53,547.694L1049.94,560.85L972.915,516.382L980.511,503.226ZM994.049,479.777L1071.07,524.246L1062.67,538.795L985.649,494.326L994.049,479.777ZM1007.5,456.484L1084.52,500.952L1075.85,515.965L998.83,471.497L1007.5,456.484ZM1020.99,433.112L1098.01,477.581L1088.59,493.91L1011.56,449.441L1020.99,433.112ZM1034.44,409.819L1111.46,454.287L1101.54,471.467L1024.52,426.999L1034.44,409.819ZM1047.93,386.448L1124.95,430.916L1114.5,449.024L1037.48,404.556L1047.93,386.448ZM1061.34,363.231L1138.36,407.699L1127.46,426.582L1050.43,382.114L1061.34,363.231ZM1074.88,339.783L1151.9,384.251L1140.41,404.139L1063.39,359.671L1074.88,339.783ZM1088.19,316.721L1165.21,361.189L1153.37,381.697L1076.35,337.229L1088.19,316.721ZM1089.08,315.173C1089.08,315.173 1247.63,40.282 1247.74,40.081C1248.07,39.445 1248.74,39.011 1249.51,39.011L1283.09,39.011C1284.19,39.011 1285.09,39.906 1285.09,41.011L1285.09,152.989C1285.09,153.3 1285.02,153.594 1284.89,153.856C1284.83,153.982 1166.1,359.641 1166.1,359.641L1089.08,315.173ZM1251.51,43.011L1251.51,150.989L1281.09,150.989L1281.09,43.011L1251.51,43.011Z" style="fill:rgb(255,207,2);"/>
        </g>
    </g>
</svg>
