<?xml version="1.0" encoding="UTF-8" standalone="no"?>
<!DOCTYPE svg PUBLIC "-//W3C//DTD SVG 1.1//EN" "http://www.w3.org/Graphics/SVG/1.1/DTD/svg11.dtd">
<svg width="100%" height="100%" viewBox="0 0 520 794" version="1.1" xmlns="http://www.w3.org/2000/svg" xmlns:xlink="http://www.w3.org/1999/xlink" xml:space="preserve" xmlns:serif="http://www.serif.com/" style="fill-rule:evenodd;clip-rule:evenodd;stroke-linejoin:round;stroke-miterlimit:2;">
    <g transform="matrix(1,0,0,1,107.51,-228.276)">
        <g id="P" transform="matrix(1,0,0,1,-1061.65,-1.11857)">
            <path d="M1471.13,272.408C1471.13,255.25 1467.46,232.344 1422.32,232.344L1379.81,232.344L1379.81,344.322L1413.38,344.322L1413.38,311.947L1423.72,311.947C1468.69,311.947 1471.13,289.391 1471.13,272.408ZM1437.21,272.408C1437.21,279.413 1434.4,285.894 1423.19,285.894L1413.38,285.894L1413.38,259.097L1423.19,259.097C1434.23,259.097 1437.21,265.227 1437.21,272.408Z" style="fill:white;fill-rule:nonzero;"/>
        </g>
        <g id="P1" serif:id="P" transform="matrix(1,0,0,1,-985.423,190.215)">
            <path d="M879.084,772.476L974.707,827.684L973.692,829.443L878.069,774.235L879.084,772.476ZM892.533,749.182L988.156,804.39L986.458,807.331L890.835,752.123L892.533,749.182ZM905.981,725.888L1001.6,781.096L999.415,784.888L903.792,729.68L905.981,725.888ZM919.475,702.517L1015.1,757.725L1012.6,762.059L916.973,706.851L919.475,702.517ZM933.013,679.069L1028.64,734.277L1025.33,740.003L929.706,684.795L933.013,679.069ZM946.372,655.93L1042,711.138L1038.29,717.561L942.664,662.353L946.372,655.93ZM959.687,632.868L1055.31,688.076L1051.24,695.118L955.621,639.91L959.687,632.868ZM973.314,609.265L1068.94,664.473L1064.2,672.676L968.578,617.468L973.314,609.265ZM986.763,585.971L1082.39,641.179L1077.16,650.233L981.535,595.025L986.763,585.971ZM1000.35,562.445L1095.97,617.653L1090.12,627.791L994.492,572.583L1000.35,562.445ZM1013.71,539.306L1109.33,594.514L1102.85,605.735L1007.23,550.527L1013.71,539.306ZM1027.15,516.012L1122.78,571.22L1116.03,582.906L1020.41,527.698L1027.15,516.012ZM1040.74,492.486L1136.36,547.694L1128.76,560.85L1033.14,505.642L1040.74,492.486ZM1054.27,469.038L1149.9,524.246L1141.5,538.795L1045.87,483.587L1054.27,469.038ZM1067.72,445.744L1163.35,500.952L1154.68,515.965L1059.06,460.757L1067.72,445.744ZM1081.22,422.373L1176.84,477.581L1167.41,493.91L1071.79,438.702L1081.22,422.373ZM1094.66,399.079L1190.29,454.287L1180.37,471.467L1084.75,416.259L1094.66,399.079ZM1108.16,375.708L1203.78,430.916L1193.33,449.024L1097.7,393.817L1108.16,375.708ZM1121.56,352.491L1217.18,407.699L1206.28,426.582L1110.66,371.374L1121.56,352.491ZM1135.1,329.043L1230.72,384.251L1219.24,404.139L1123.62,348.932L1135.1,329.043ZM1148.41,305.981L1244.04,361.189L1232.2,381.697L1136.58,326.489L1148.41,305.981ZM1149.31,304.433C1149.31,304.433 1301.86,39.987 1301.93,39.885C1302.29,39.357 1302.9,39.011 1303.59,39.011L1346.1,39.011C1369.54,39.011 1382.15,45.152 1388.97,53.328C1395.86,61.588 1396.91,72.072 1396.91,81.074C1396.91,88.676 1396.37,97.321 1392.14,104.753C1391.84,105.285 1244.93,359.641 1244.93,359.641L1149.31,304.433ZM1305.59,43.011L1305.59,150.989L1335.16,150.989L1335.16,120.614C1335.16,119.509 1336.06,118.614 1337.16,118.614C1337.16,118.614 1347.5,118.614 1347.5,118.614C1369.08,118.614 1380.53,113.411 1386.51,105.96C1392.44,98.579 1392.91,89.15 1392.91,81.074C1392.91,72.919 1392.13,63.371 1385.9,55.889C1379.59,48.322 1367.8,43.011 1346.1,43.011L1305.59,43.011ZM1362.99,81.074C1362.99,76.969 1362.05,73.189 1359.62,70.41C1357.2,67.641 1353.26,65.764 1346.97,65.764L1337.16,65.764C1336.06,65.764 1335.16,66.659 1335.16,67.764L1335.16,94.561C1335.16,95.665 1336.06,96.561 1337.16,96.561L1346.97,96.561C1353.37,96.561 1357.31,94.58 1359.71,91.733C1362.11,88.888 1362.99,85.068 1362.99,81.074Z" style="fill:rgb(237,80,127);"/>
        </g>
    </g>
</svg>
