<?xml version="1.0" encoding="UTF-8" standalone="no"?>
<!DOCTYPE svg PUBLIC "-//W3C//DTD SVG 1.1//EN" "http://www.w3.org/Graphics/SVG/1.1/DTD/svg11.dtd">
<svg width="100%" height="100%" viewBox="0 0 514 794" version="1.1" xmlns="http://www.w3.org/2000/svg" xmlns:xlink="http://www.w3.org/1999/xlink" xml:space="preserve" xmlns:serif="http://www.serif.com/" style="fill-rule:evenodd;clip-rule:evenodd;stroke-linejoin:round;stroke-miterlimit:2;">
    <g transform="matrix(1,0,0,1,101.51,-228.276)">
        <g transform="matrix(1,0,0,1,-496.57,0.631428)">
            <path d="M906.06,288.508C906.06,260.148 897.316,230.594 851.646,230.594C806.152,230.594 797.407,260.148 797.407,288.333C797.407,316.518 805.977,346.072 851.646,346.072C897.316,346.072 906.06,316.518 906.06,288.508ZM871.957,288.508C871.957,304.964 870.907,319.144 851.646,319.144C832.561,319.144 831.335,304.964 831.335,288.333C831.335,271.702 832.561,257.697 851.646,257.697C870.907,257.697 871.957,271.702 871.957,288.508Z" style="fill:white;fill-rule:nonzero;"/>
        </g>
        <g id="O" transform="matrix(1,0,0,1,-108.148,191.965)">
            <path d="M6.614,767.551L110.768,827.684L109.752,829.443L5.599,769.31L6.614,767.551ZM20.063,744.257L124.217,804.39L122.519,807.331L18.365,747.198L20.063,744.257ZM33.511,720.963L137.665,781.096L135.476,784.888L31.322,724.755L33.511,720.963ZM47.005,697.592L151.159,757.725L148.657,762.059L44.503,701.926L47.005,697.592ZM60.543,674.143L164.697,734.277L161.39,740.003L57.237,679.87L60.543,674.143ZM73.902,651.004L178.056,711.138L174.348,717.561L70.194,657.428L73.902,651.004ZM87.217,627.943L191.371,688.076L187.305,695.118L83.151,634.985L87.217,627.943ZM100.844,604.339L204.998,664.473L200.262,672.676L96.108,612.543L100.844,604.339ZM114.293,581.046L218.447,641.179L213.219,650.233L109.065,590.1L114.293,581.046ZM127.876,557.52L232.029,617.653L226.176,627.791L122.022,567.657L127.876,557.52ZM141.235,534.381L245.389,594.514L238.91,605.735L134.756,545.602L141.235,534.381ZM154.684,511.087L258.837,571.22L252.091,582.906L147.937,522.772L154.684,511.087ZM168.266,487.561L272.42,547.694L264.825,560.85L160.671,500.717L168.266,487.561ZM181.804,464.112L285.958,524.246L277.558,538.795L173.404,478.661L181.804,464.112ZM195.253,440.819L299.407,500.952L290.739,515.965L186.585,455.832L195.253,440.819ZM208.746,417.447L312.9,477.581L303.473,493.91L199.319,433.776L208.746,417.447ZM222.195,394.154L326.349,454.287L316.43,471.467L212.276,411.334L222.195,394.154ZM235.688,370.782L339.842,430.916L329.387,449.024L225.233,388.891L235.688,370.782ZM249.092,347.566L353.246,407.699L342.344,426.582L238.19,366.449L249.092,347.566ZM262.63,324.117L366.784,384.251L355.301,404.139L251.148,344.006L262.63,324.117ZM275.945,301.056L380.099,361.189L368.259,381.697L264.105,321.564L275.945,301.056ZM276.839,299.508C276.839,299.508 415.329,59.567 415.922,58.625C417.903,55.48 420.284,52.576 423.133,49.987C431.655,42.244 444.381,37.261 463.224,37.261C482.136,37.261 494.904,42.244 503.451,49.997C516.248,61.607 519.638,79.59 519.638,97.175C519.638,109.178 518.02,121.434 512.798,131.681C511.74,133.758 380.992,359.641 380.992,359.641L276.839,299.508ZM515.638,97.175C515.638,113.414 512.731,130.237 500.765,141.06C492.8,148.264 480.848,152.739 463.224,152.739C445.602,152.739 433.679,148.266 425.748,141.052C413.829,130.211 410.985,113.344 410.985,97C410.985,80.656 413.891,63.789 425.823,52.948C433.761,45.734 445.67,41.261 463.224,41.261C480.847,41.261 492.799,45.735 500.763,52.96C512.732,63.819 515.638,80.728 515.638,97.175ZM485.535,97.175C485.535,91.142 485.388,85.462 484.37,80.626C483.268,75.394 481.14,71.113 477.303,68.241C474.059,65.813 469.548,64.364 463.224,64.364C456.954,64.364 452.463,65.812 449.222,68.236C445.392,71.101 443.246,75.367 442.122,80.568C441.081,85.381 440.913,91.025 440.913,97C440.913,102.973 441.081,108.637 442.121,113.479C443.244,118.705 445.389,123.005 449.215,125.895C452.458,128.344 456.951,129.811 463.224,129.811C469.55,129.811 474.063,128.344 477.307,125.901C481.142,123.015 483.268,118.724 484.37,113.521C485.389,108.707 485.535,103.084 485.535,97.175Z" style="fill:rgb(237,80,127);"/>
        </g>
    </g>
</svg>
