<?xml version="1.0" encoding="UTF-8" standalone="no"?>
<!DOCTYPE svg PUBLIC "-//W3C//DTD SVG 1.1//EN" "http://www.w3.org/Graphics/SVG/1.1/DTD/svg11.dtd">
<svg width="100%" height="100%" viewBox="0 0 526 809" version="1.1" xmlns="http://www.w3.org/2000/svg" xmlns:xlink="http://www.w3.org/1999/xlink" xml:space="preserve" xmlns:serif="http://www.serif.com/" style="fill-rule:evenodd;clip-rule:evenodd;stroke-linejoin:round;stroke-miterlimit:2;">
    <g transform="matrix(1,0,0,1,5.38127,-230.663)">
        <g transform="matrix(155.12,0,0,155.12,412.457,343.564)">
            <path d="M0.043,0L0.252,0L0.252,-0.28L0.472,-0.28L0.472,0L0.681,0L0.681,-0.715L0.472,-0.715L0.472,-0.453L0.252,-0.453L0.252,-0.715L0.043,-0.715L0.043,0Z" style="fill:white;fill-rule:nonzero;"/>
        </g>
        <path id="H" d="M117.803,1036.98L116.784,1038.75L-5.381,968.215L-4.362,966.45L117.803,1036.98ZM131.299,1013.61L129.595,1016.56L7.43,946.025L9.134,943.074L131.299,1013.61ZM144.794,990.231L142.597,994.036L20.432,923.504L22.629,919.699L144.794,990.231ZM158.335,966.778L155.824,971.127L33.659,900.595L36.17,896.246L158.335,966.778ZM171.921,943.247L168.603,948.994L46.438,878.462L49.756,872.715L171.921,943.247ZM185.327,920.027L181.605,926.473L59.44,855.941L63.162,849.495L185.327,920.027ZM198.688,896.884L194.608,903.951L72.443,833.419L76.523,826.352L198.688,896.884ZM212.363,873.198L207.611,881.43L85.446,810.898L90.198,802.666L212.363,873.198ZM225.859,849.823L220.613,858.909L98.448,788.377L103.694,779.291L225.859,849.823ZM239.489,826.214L233.616,836.388L111.451,765.856L117.324,755.682L239.489,826.214ZM252.896,802.994L246.394,814.255L124.229,743.723L130.73,732.462L252.896,802.994ZM266.391,779.619L259.621,791.345L137.456,720.813L144.226,709.087L266.391,779.619ZM280.022,756.01L272.399,769.212L150.234,698.68L157.857,685.478L280.022,756.01ZM293.607,732.48L285.178,747.08L163.013,676.548L171.442,661.948L293.607,732.48ZM307.103,709.104L298.405,724.17L176.24,653.638L184.938,638.572L307.103,709.104ZM320.644,685.651L311.183,702.037L189.018,631.505L198.479,615.119L320.644,685.651ZM334.14,662.276L324.186,679.516L202.021,608.984L211.974,591.744L334.14,662.276ZM347.68,638.822L337.188,656.995L215.023,586.463L225.515,568.29L347.68,638.822ZM361.131,615.525L350.191,634.474L228.026,563.942L238.966,544.993L361.131,615.525ZM374.717,591.994L363.194,611.952L241.029,541.42L252.552,521.462L374.717,591.994ZM388.078,568.851L376.196,589.431L254.031,518.899L265.913,498.319L388.078,568.851ZM266.81,496.766L417.137,236.391L417.137,232.663C417.248,231.109 417.671,230.768 419.137,230.663L451.538,230.663C453.092,230.774 453.433,231.197 453.538,232.663L453.538,271.304L463.549,271.304L483.684,236.431L483.684,232.663C483.795,231.109 484.218,230.768 485.684,230.663L518.084,230.663C518.084,230.663 518.346,230.678 518.648,230.744C519.889,231.207 519.996,231.433 520.084,232.663L520.084,343.554C519.973,345.108 519.551,345.449 518.084,345.554L516.999,345.554L388.975,567.298L266.81,496.766ZM449.538,234.663L421.137,234.663L421.137,341.554L449.538,341.554L449.538,300.121C449.538,300.121 449.787,298.246 451.538,298.121L485.684,298.121C487.237,298.232 487.579,298.655 487.684,300.121L487.684,341.554L516.084,341.554L516.084,234.663L487.684,234.663L487.684,273.304C487.573,274.858 487.15,275.199 485.684,275.304L451.538,275.304C449.984,275.193 449.643,274.77 449.538,273.304L449.538,234.663Z" style="fill:rgb(237,80,127);"/>
    </g>
</svg>
