<?xml version="1.0" encoding="UTF-8" standalone="no"?>
<!DOCTYPE svg PUBLIC "-//W3C//DTD SVG 1.1//EN" "http://www.w3.org/Graphics/SVG/1.1/DTD/svg11.dtd">
<svg width="100%" height="100%" viewBox="0 0 506 794" version="1.1" xmlns="http://www.w3.org/2000/svg" xmlns:xlink="http://www.w3.org/1999/xlink" xml:space="preserve" xmlns:serif="http://www.serif.com/" style="fill-rule:evenodd;clip-rule:evenodd;stroke-linejoin:round;stroke-miterlimit:2;">
    <g transform="matrix(1,0,0,1,93.51,-228.276)">
        <g id="E" transform="matrix(1,0,0,1,-440.745,-1.11857)">
            <path d="M850.235,344.322L850.235,317.569L800.535,317.569L800.535,299.522L845.16,299.522L845.16,275.219L800.535,275.219L800.535,259.097L850.235,259.097L850.235,232.344L767.132,232.344L767.132,344.322L850.235,344.322Z" style="fill:white;fill-rule:nonzero;"/>
        </g>
        <g id="E1" serif:id="E" transform="matrix(1,0,0,1,-364.523,190.215)">
            <path d="M272.535,761.729L386.773,827.684L385.757,829.443L271.52,763.488L272.535,761.729ZM285.984,738.435L400.221,804.39L398.524,807.331L284.286,741.376L285.984,738.435ZM299.432,715.141L413.67,781.096L411.481,784.888L297.243,718.933L299.432,715.141ZM312.926,691.77L427.163,757.725L424.661,762.059L310.424,696.104L312.926,691.77ZM326.464,668.321L440.702,734.277L437.395,740.003L323.157,674.048L326.464,668.321ZM339.823,645.182L454.061,711.138L450.352,717.561L336.115,651.606L339.823,645.182ZM353.138,622.121L467.375,688.076L463.31,695.118L349.072,629.163L353.138,622.121ZM366.765,598.517L481.003,664.473L476.267,672.676L362.029,606.721L366.765,598.517ZM380.214,575.224L494.452,641.179L489.224,650.233L374.986,584.278L380.214,575.224ZM393.797,551.698L508.034,617.653L502.181,627.791L387.943,561.836L393.797,551.698ZM407.156,528.559L521.394,594.514L514.915,605.735L400.677,539.78L407.156,528.559ZM420.604,505.265L534.842,571.22L528.096,582.906L413.858,516.951L420.604,505.265ZM434.187,481.739L548.425,547.694L540.829,560.85L426.592,494.895L434.187,481.739ZM447.725,458.29L561.963,524.246L553.563,538.795L439.325,472.839L447.725,458.29ZM461.174,434.997L575.412,500.952L566.744,515.965L452.506,450.01L461.174,434.997ZM474.667,411.625L588.905,477.581L579.478,493.91L465.24,427.954L474.667,411.625ZM488.116,388.332L602.354,454.287L592.435,471.467L478.197,405.512L488.116,388.332ZM501.609,364.96L615.847,430.916L605.392,449.024L491.154,383.069L501.609,364.96ZM515.013,341.744L629.251,407.699L618.349,426.582L504.111,360.627L515.013,341.744ZM528.551,318.296L642.789,384.251L631.306,404.139L517.069,338.184L528.551,318.296ZM541.866,295.234L656.104,361.189L644.264,381.697L530.026,315.742L541.866,295.234ZM542.76,293.686C542.76,293.686 689.09,40.176 689.134,40.091C689.466,39.449 690.137,39.011 690.91,39.011L774.013,39.011C775.117,39.011 776.013,39.906 776.013,41.011L776.013,67.764C776.013,68.073 775.943,68.366 775.817,68.628C775.783,68.698 768.188,81.886 768.188,81.886L768.938,81.886C770.042,81.886 770.938,82.781 770.938,83.886L770.938,108.189C770.938,108.581 770.825,108.946 770.63,109.255C770.551,109.381 761.939,124.236 761.939,124.236L774.013,124.236C775.117,124.236 776.013,125.131 776.013,126.236L776.013,152.989C776.013,153.371 775.906,153.727 775.72,154.031C775.691,154.079 656.997,359.641 656.997,359.641L542.76,293.686ZM772.013,65.764L772.013,43.011L692.91,43.011L692.91,150.989L772.013,150.989L772.013,128.236L724.313,128.236C723.208,128.236 722.313,127.34 722.313,126.236L722.313,108.189C722.313,107.084 723.208,106.189 724.313,106.189L766.938,106.189L766.938,85.886L724.313,85.886C723.208,85.886 722.313,84.99 722.313,83.886L722.313,67.764C722.313,66.659 723.208,65.764 724.313,65.764L772.013,65.764Z" style="fill:rgb(1,191,179);"/>
        </g>
    </g>
</svg>
