<?xml version="1.0" encoding="UTF-8" standalone="no"?>
<!DOCTYPE svg PUBLIC "-//W3C//DTD SVG 1.1//EN" "http://www.w3.org/Graphics/SVG/1.1/DTD/svg11.dtd">
<svg width="100%" height="100%" viewBox="0 0 495 794" version="1.1" xmlns="http://www.w3.org/2000/svg" xmlns:xlink="http://www.w3.org/1999/xlink" xml:space="preserve" xmlns:serif="http://www.serif.com/" style="fill-rule:evenodd;clip-rule:evenodd;stroke-linejoin:round;stroke-miterlimit:2;">
    <g transform="matrix(1,0,0,1,82.51,-228.276)">
        <g id="L" transform="matrix(1,0,0,1,-903.445,-1.11857)">
            <path d="M1312.93,344.322L1312.93,317.569L1278.11,317.569L1278.46,232.344L1244.71,232.344L1244.71,344.322L1312.93,344.322Z" style="fill:white;fill-rule:nonzero;"/>
        </g>
        <g transform="matrix(1,0,0,1,-827.223,190.215)">
            <path d="M746.396,768.23L849.373,827.684L848.358,829.443L745.381,769.989L746.396,768.23ZM759.845,744.936L862.822,804.39L861.124,807.331L758.147,747.877L759.845,744.936ZM773.294,721.643L876.271,781.096L874.081,784.888L771.104,725.435L773.294,721.643ZM786.787,698.272L889.764,757.725L887.262,762.059L784.285,702.605L786.787,698.272ZM800.325,674.823L903.302,734.277L899.996,740.003L797.019,680.55L800.325,674.823ZM813.684,651.684L916.661,711.138L912.953,717.561L809.976,658.107L813.684,651.684ZM826.999,628.622L929.976,688.076L925.91,695.118L822.933,635.665L826.999,628.622ZM840.626,605.019L943.603,664.473L938.867,672.676L835.89,613.222L840.626,605.019ZM854.075,581.725L957.052,641.179L951.824,650.233L848.848,590.78L854.075,581.725ZM867.658,558.199L970.635,617.653L964.782,627.791L861.805,568.337L867.658,558.199ZM881.017,535.06L983.994,594.514L977.515,605.735L874.539,546.281L881.017,535.06ZM894.466,511.766L997.443,571.22L990.696,582.906L887.719,523.452L894.466,511.766ZM908.049,488.24L1011.02,547.694L1003.43,560.85L900.453,501.396L908.049,488.24ZM921.587,464.792L1024.56,524.246L1016.16,538.795L913.187,479.341L921.587,464.792ZM935.035,441.498L1038.01,500.952L1029.34,515.965L926.367,456.511L935.035,441.498ZM948.529,418.127L1051.51,477.581L1042.08,493.91L939.101,434.456L948.529,418.127ZM961.977,394.833L1064.95,454.287L1055.04,471.467L952.058,412.013L961.977,394.833ZM975.471,371.462L1078.45,430.916L1067.99,449.024L965.016,389.571L975.471,371.462ZM988.875,348.246L1091.85,407.699L1080.95,426.582L977.973,367.128L988.875,348.246ZM1002.41,324.797L1105.39,384.251L1093.91,404.139L990.93,344.686L1002.41,324.797ZM1015.73,301.735L1118.7,361.189L1106.86,381.697L1003.89,322.243L1015.73,301.735ZM1016.62,300.188C1016.62,300.188 1166.66,40.173 1166.75,40.023C1167.09,39.419 1167.74,39.011 1168.49,39.011L1202.24,39.011C1202.77,39.011 1203.28,39.222 1203.65,39.599C1204.03,39.976 1204.24,40.487 1204.24,41.019L1203.9,124.236L1236.71,124.236C1237.82,124.236 1238.71,125.131 1238.71,126.236L1238.71,152.989C1238.71,153.314 1238.63,153.622 1238.5,153.894C1238.38,154.114 1119.6,359.641 1119.6,359.641L1016.62,300.188ZM1200.23,43.011L1170.49,43.011L1170.49,150.989L1234.71,150.989L1234.71,128.236L1201.89,128.236C1201.36,128.236 1200.85,128.024 1200.47,127.647C1200.1,127.27 1199.89,126.759 1199.89,126.227L1200.23,43.011Z" style="fill:rgb(1,191,179);"/>
        </g>
    </g>
</svg>
