<?xml version="1.0" encoding="UTF-8" standalone="no"?>
<!DOCTYPE svg PUBLIC "-//W3C//DTD SVG 1.1//EN" "http://www.w3.org/Graphics/SVG/1.1/DTD/svg11.dtd">
<svg width="100%" height="100%" viewBox="0 0 518 794" version="1.1" xmlns="http://www.w3.org/2000/svg" xmlns:xlink="http://www.w3.org/1999/xlink" xml:space="preserve" xmlns:serif="http://www.serif.com/" style="fill-rule:evenodd;clip-rule:evenodd;stroke-linejoin:round;stroke-miterlimit:2;">
    <g transform="matrix(1,0,0,1,105.51,-228.276)">
        <g id="H" transform="matrix(1,0,0,1,-170.02,-1.11857)">
            <path d="M579.51,344.322L579.51,232.344L545.932,232.344L545.932,273.994L515.635,273.994L515.635,232.344L482.057,232.344L482.057,344.322L515.635,344.322L515.635,300.572L545.932,300.572L545.932,344.322L579.51,344.322Z" style="fill:white;fill-rule:nonzero;"/>
        </g>
        <g id="H1" serif:id="H" transform="matrix(1,0,0,1,-93.7978,410.215)">
            <path d="M-10.251,537.715L114.608,609.803L113.592,611.562L-11.267,539.474L-10.251,537.715ZM3.198,514.422L128.057,586.509L126.359,589.45L1.5,517.362L3.198,514.422ZM16.646,491.128L141.505,563.215L139.316,567.007L14.457,494.92L16.646,491.128ZM30.14,467.757L154.999,539.844L152.497,544.178L27.637,472.09L30.14,467.757ZM43.678,444.308L168.537,516.396L165.23,522.122L40.371,450.035L43.678,444.308ZM57.037,421.169L181.896,493.257L178.188,499.68L53.328,427.592L57.037,421.169ZM70.352,398.107L195.211,470.195L191.145,477.237L66.286,405.15L70.352,398.107ZM83.979,374.504L208.838,446.592L204.102,454.795L79.243,382.707L83.979,374.504ZM97.428,351.21L222.287,423.298L217.059,432.352L92.2,360.265L97.428,351.21ZM111.01,327.684L235.869,399.772L230.016,409.91L105.157,337.822L111.01,327.684ZM124.37,304.545L249.229,376.633L242.75,387.854L117.891,315.767L124.37,304.545ZM137.818,281.252L262.677,353.339L255.931,365.025L131.072,292.937L137.818,281.252ZM151.401,257.726L276.26,329.813L268.664,342.969L143.805,270.882L151.401,257.726ZM164.939,234.277L289.798,306.365L281.398,320.913L156.539,248.826L164.939,234.277ZM178.388,210.983L303.247,283.071L294.579,298.084L169.72,225.997L178.388,210.983ZM191.881,187.612L316.74,259.7L307.313,276.028L182.454,203.941L191.881,187.612ZM205.33,164.318L330.189,236.406L320.27,253.586L195.411,181.498L205.33,164.318ZM218.823,140.947L343.682,213.035L333.227,231.143L208.368,159.056L218.823,140.947ZM232.227,117.731L357.086,189.818L346.184,208.701L221.325,136.613L232.227,117.731ZM245.765,94.282L370.624,166.37L359.141,186.258L234.282,114.171L245.765,94.282ZM259.08,71.221L383.939,143.308L372.099,163.816L247.24,91.728L259.08,71.221ZM403.88,-179.414C404.075,-180.315 404.876,-180.989 405.835,-180.989L439.413,-180.989C440.517,-180.989 441.413,-180.094 441.413,-178.989L441.413,-139.339L444.514,-139.339L467.909,-179.86C468.232,-180.528 468.917,-180.989 469.71,-180.989L503.288,-180.989C504.392,-180.989 505.288,-180.094 505.288,-178.989L505.288,-67.011C505.288,-66.323 504.941,-65.717 504.411,-65.357L384.832,141.76L259.973,69.673L403.809,-179.458L403.88,-179.414ZM437.413,-176.989L407.835,-176.989L407.835,-69.011L437.413,-69.011L437.413,-110.761C437.413,-111.866 438.308,-112.761 439.413,-112.761L469.71,-112.761C470.814,-112.761 471.71,-111.866 471.71,-110.761L471.71,-69.011L501.288,-69.011L501.288,-176.989L471.71,-176.989L471.71,-137.339C471.71,-136.235 470.814,-135.339 469.71,-135.339L439.413,-135.339C438.308,-135.339 437.413,-136.235 437.413,-137.339L437.413,-176.989Z" style="fill:rgb(14,213,254);"/>
        </g>
    </g>
</svg>
