<?xml version="1.0" encoding="UTF-8" standalone="no"?>
<!DOCTYPE svg PUBLIC "-//W3C//DTD SVG 1.1//EN" "http://www.w3.org/Graphics/SVG/1.1/DTD/svg11.dtd">
<svg width="100%" height="100%" viewBox="0 0 581 794" version="1.1" xmlns="http://www.w3.org/2000/svg" xmlns:xlink="http://www.w3.org/1999/xlink" xml:space="preserve" xmlns:serif="http://www.serif.com/" style="fill-rule:evenodd;clip-rule:evenodd;stroke-linejoin:round;stroke-miterlimit:2;">
    <g transform="matrix(1,0,0,1,168.51,-228.276)">
        <g id="W" transform="matrix(1,0,0,1,-466.831,-1.11857)">
            <path d="M876.321,232.344L842.021,232.344L826.796,306.529L809.646,232.344L773.946,232.344L756.971,306.529L741.571,232.344L706.221,232.344L737.896,344.322L774.296,344.322L791.271,271.012L808.421,344.322L844.646,344.322L876.321,232.344Z" style="fill:white;fill-rule:nonzero;"/>
        </g>
        <g id="W1" serif:id="W" transform="matrix(1,0,0,1,-390.609,583.493)">
            <path d="M224.134,346.762L233.43,352.128L233.436,352.118L379.877,436.665L378.861,438.424L333.259,412.096L333.253,412.106L223.119,348.52L224.134,346.762ZM237.583,323.468L246.878,328.834L246.885,328.824L393.325,413.371L391.627,416.312L346.026,389.984L346.02,389.995L235.885,326.409L237.583,323.468ZM251.032,300.174L260.327,305.541L260.333,305.53L406.774,390.078L404.585,393.87L358.983,367.541L358.977,367.552L248.842,303.966L251.032,300.174ZM264.525,276.803L273.82,282.169L273.827,282.159L420.267,366.706L417.765,371.04L372.164,344.712L372.157,344.723L262.023,281.137L264.525,276.803ZM278.063,253.354L287.359,258.721L287.365,258.71L433.805,343.258L430.499,348.985L384.897,322.656L384.891,322.667L274.757,259.081L278.063,253.354ZM291.422,230.215L300.718,235.582L300.724,235.571L447.165,320.119L443.456,326.542L397.855,300.214L397.848,300.225L287.714,236.638L291.422,230.215ZM304.737,207.154L314.032,212.52L314.039,212.51L460.479,297.057L456.413,304.1L410.812,277.771L410.806,277.782L300.671,214.196L304.737,207.154ZM318.364,183.55L327.66,188.917L327.666,188.906L474.107,273.454L469.371,281.657L423.769,255.329L423.763,255.339L313.628,191.753L318.364,183.55ZM331.813,160.256L341.109,165.623L341.115,165.613L487.555,250.16L482.328,259.215L436.726,232.886L436.72,232.897L326.586,169.311L331.813,160.256ZM345.396,136.731L354.691,142.097L354.697,142.087L501.138,226.634L495.285,236.772L449.683,210.444L449.677,210.454L339.543,146.868L345.396,136.731ZM358.755,113.592L368.051,118.958L368.057,118.948L514.497,203.495L508.019,214.716L462.417,188.388L462.411,188.399L352.277,124.813L358.755,113.592ZM372.204,90.298L381.499,95.664L381.505,95.654L527.946,180.201L521.199,191.887L475.598,165.559L475.592,165.569L365.457,101.983L372.204,90.298ZM385.787,66.772L395.082,72.138L395.088,72.128L541.529,156.675L533.933,169.831L488.331,143.503L488.325,143.514L378.191,79.928L385.787,66.772ZM399.325,43.323L408.62,48.69L408.626,48.679L555.067,133.227L546.667,147.776L501.065,121.448L501.059,121.458L390.925,57.872L399.325,43.323ZM412.773,20.029L422.069,25.396L422.075,25.385L568.515,109.933L559.848,124.946L514.246,98.618L514.24,98.629L404.105,35.043L412.773,20.029ZM426.267,-3.342L435.562,2.025L435.568,2.014L582.009,86.562L572.581,102.891L526.98,76.563L526.974,76.573L416.839,12.987L426.267,-3.342ZM439.715,-26.636L449.011,-21.269L449.017,-21.279L595.458,63.268L585.539,80.448L539.937,54.12L539.931,54.131L429.796,-9.455L439.715,-26.636ZM453.209,-50.007L462.504,-44.64L462.51,-44.651L608.951,39.897L598.496,58.006L552.894,31.678L552.888,31.688L442.754,-31.898L453.209,-50.007ZM466.613,-73.223L475.908,-67.856L475.914,-67.867L622.355,16.681L611.453,35.563L565.851,9.235L565.845,9.246L455.711,-54.34L466.613,-73.223ZM480.151,-96.672L489.446,-91.305L489.452,-91.316L635.893,-6.768L624.41,13.121L578.808,-13.207L578.802,-13.197L468.668,-76.783L480.151,-96.672ZM493.465,-119.733L502.761,-114.367L502.767,-114.377L649.208,-29.83L637.367,-9.322L591.766,-35.65L591.759,-35.639L481.625,-99.225L493.465,-119.733ZM628.246,-353.201C628.299,-353.293 628.465,-353.54 628.587,-353.674C628.637,-353.729 628.711,-353.799 628.748,-353.828C629.099,-354.109 629.539,-354.267 629.999,-354.267L665.349,-354.267C666.297,-354.267 667.114,-353.602 667.307,-352.674L674.827,-316.447C674.827,-316.447 695.888,-353.081 695.972,-353.233C696.317,-353.859 696.981,-354.267 697.724,-354.267L733.424,-354.267C734.355,-354.267 735.163,-353.625 735.372,-352.718L743.517,-317.488C743.517,-317.488 763.957,-353.069 764.047,-353.233C764.391,-353.858 765.055,-354.267 765.799,-354.267L800.099,-354.267C800.725,-354.267 801.316,-353.974 801.694,-353.474C802.072,-352.974 802.194,-352.326 802.023,-351.723L770.348,-239.745C770.306,-239.594 770.246,-239.451 770.172,-239.318C770.111,-239.208 650.101,-31.377 650.101,-31.377L604.499,-57.706L604.493,-57.695L494.359,-121.281C494.359,-121.281 605.488,-313.819 628.246,-353.201ZM663.721,-350.267L632.643,-350.267L663.186,-242.289L696.484,-242.289L713.1,-314.051C713.31,-314.957 714.117,-315.599 715.046,-315.6C715.976,-315.601 716.784,-314.961 716.996,-314.055L733.785,-242.289L766.911,-242.289L797.455,-350.267L767.43,-350.267L752.533,-277.68C752.344,-276.759 751.539,-276.094 750.599,-276.082C749.658,-276.07 748.837,-276.715 748.625,-277.631L731.833,-350.267L699.318,-350.267L682.698,-277.636C682.489,-276.719 681.669,-276.072 680.728,-276.082C679.788,-276.091 678.982,-276.755 678.791,-277.675L663.721,-350.267Z" style="fill:rgb(255,207,2);"/>
        </g>
    </g>
</svg>
