<?xml version="1.0" encoding="UTF-8" standalone="no"?>
<!DOCTYPE svg PUBLIC "-//W3C//DTD SVG 1.1//EN" "http://www.w3.org/Graphics/SVG/1.1/DTD/svg11.dtd">
<svg width="100%" height="100%" viewBox="0 0 522 794" version="1.1" xmlns="http://www.w3.org/2000/svg" xmlns:xlink="http://www.w3.org/1999/xlink" xml:space="preserve" xmlns:serif="http://www.serif.com/" style="fill-rule:evenodd;clip-rule:evenodd;stroke-linejoin:round;stroke-miterlimit:2;">
    <g transform="matrix(1,0,0,1,109.51,-228.276)">
        <g id="D" transform="matrix(1,0,0,1,-554.845,-1.11857)">
            <path d="M964.335,287.632C964.335,253.851 947.372,232.344 911.318,232.344L866.357,232.344L866.357,344.322L909.567,344.322C946.148,344.322 964.335,321.241 964.335,287.632ZM931.282,287.457C931.282,313.367 921.651,317.569 905.364,317.569L899.935,317.569L899.935,259.097L906.065,259.097C922.526,259.097 931.282,262.073 931.282,287.457Z" style="fill:white;fill-rule:nonzero;"/>
        </g>
        <g id="D1" serif:id="D" transform="matrix(1,0,0,1,-478.623,190.215)">
            <path d="M370.114,764.765L479.093,827.684L478.077,829.443L369.098,766.524L370.114,764.765ZM383.562,741.471L492.541,804.39L490.844,807.331L381.864,744.412L383.562,741.471ZM397.011,718.177L505.99,781.096L503.801,784.888L394.822,721.969L397.011,718.177ZM410.504,694.806L519.484,757.725L516.981,762.059L408.002,699.14L410.504,694.806ZM424.042,671.357L533.022,734.277L529.715,740.003L420.736,677.084L424.042,671.357ZM437.402,648.218L546.381,711.138L542.672,717.561L433.693,654.642L437.402,648.218ZM450.716,625.157L559.695,688.076L555.63,695.118L446.65,632.199L450.716,625.157ZM464.344,601.553L573.323,664.473L568.587,672.676L459.608,609.757L464.344,601.553ZM477.792,578.26L586.772,641.179L581.544,650.233L472.565,587.314L477.792,578.26ZM491.375,554.734L600.354,617.653L594.501,627.791L485.522,564.872L491.375,554.734ZM504.734,531.595L613.714,594.514L607.235,605.735L498.256,542.816L504.734,531.595ZM518.183,508.301L627.162,571.22L620.416,582.906L511.436,519.987L518.183,508.301ZM531.766,484.775L640.745,547.694L633.149,560.85L524.17,497.931L531.766,484.775ZM545.304,461.326L654.283,524.246L645.883,538.795L536.904,475.875L545.304,461.326ZM558.752,438.033L667.732,500.952L659.064,515.965L550.085,453.046L558.752,438.033ZM572.246,414.661L681.225,477.581L671.798,493.91L562.818,430.99L572.246,414.661ZM585.694,391.368L694.674,454.287L684.755,471.467L575.776,408.548L585.694,391.368ZM599.188,367.997L708.167,430.916L697.712,449.024L588.733,386.105L599.188,367.997ZM612.592,344.78L721.571,407.699L710.669,426.582L601.69,363.663L612.592,344.78ZM626.13,321.332L735.109,384.251L723.626,404.139L614.647,341.22L626.13,321.332ZM639.445,298.27L748.424,361.189L736.584,381.697L627.604,318.778L639.445,298.27ZM640.338,296.722C640.338,296.722 788.229,40.361 788.328,40.153C788.648,39.477 789.337,39.011 790.135,39.011L835.096,39.011C853.803,39.011 867.525,44.678 876.603,54.64C885.648,64.566 890.113,78.833 890.113,96.299C890.113,110.175 887.071,122.301 881.04,131.872C880.537,132.67 749.317,359.641 749.317,359.641L640.338,296.722ZM792.135,150.989L833.345,150.989C850.965,150.989 864.185,145.504 872.97,135.897C881.784,126.26 886.113,112.54 886.113,96.299C886.113,79.984 882.096,66.607 873.646,57.334C865.229,48.097 852.442,43.011 835.096,43.011L792.135,43.011L792.135,150.989ZM857.06,96.124C857.06,82.611 854.501,75.125 849.98,70.954C845.416,66.745 838.687,65.764 829.842,65.764L823.713,65.764C822.608,65.764 821.713,66.659 821.713,67.764L821.713,126.236C821.713,127.34 822.608,128.236 823.713,128.236L829.142,128.236C837.897,128.236 844.819,126.947 849.597,122.335C854.309,117.787 857.06,109.861 857.06,96.124Z" style="fill:rgb(255,207,2);"/>
        </g>
    </g>
</svg>
