<?xml version="1.0" encoding="UTF-8" standalone="no"?>
<!DOCTYPE svg PUBLIC "-//W3C//DTD SVG 1.1//EN" "http://www.w3.org/Graphics/SVG/1.1/DTD/svg11.dtd">
<svg width="100%" height="100%" viewBox="0 0 517 794" version="1.1" xmlns="http://www.w3.org/2000/svg" xmlns:xlink="http://www.w3.org/1999/xlink" xml:space="preserve" xmlns:serif="http://www.serif.com/" style="fill-rule:evenodd;clip-rule:evenodd;stroke-linejoin:round;stroke-miterlimit:2;">
    <g transform="matrix(1,0,0,1,104.51,-228.276)">
        <g id="T" transform="matrix(1,0,0,1,-386.845,-1.11857)">
            <path d="M796.335,259.097L796.335,232.344L710.257,232.344L710.257,259.097L736.682,259.097L736.682,344.322L769.91,344.322L769.91,259.097L796.335,259.097Z" style="fill:white;fill-rule:nonzero;"/>
        </g>
        <g id="T1" serif:id="T" transform="matrix(1,0,0,1,-310.623,410.215)">
            <path d="M208.51,554.129L305.136,609.916L304.12,611.674L207.494,555.887L208.51,554.129ZM221.958,530.835L318.584,586.622L316.886,589.563L220.261,533.776L221.958,530.835ZM235.407,507.541L332.033,563.328L329.844,567.12L233.218,511.333L235.407,507.541ZM248.9,484.17L345.526,539.957L343.024,544.291L246.398,488.504L248.9,484.17ZM262.438,460.721L359.064,516.508L355.758,522.235L259.132,466.448L262.438,460.721ZM275.798,437.582L372.424,493.369L368.715,499.792L272.089,444.005L275.798,437.582ZM289.112,414.521L385.738,470.308L381.672,477.35L285.046,421.563L289.112,414.521ZM302.74,390.917L399.366,446.704L394.63,454.907L298.004,399.12L302.74,390.917ZM316.188,367.624L412.814,423.411L407.587,432.465L310.961,376.678L316.188,367.624ZM329.771,344.098L426.397,399.885L420.544,410.022L323.918,354.235L329.771,344.098ZM343.13,320.959L439.756,376.746L433.278,387.967L336.652,332.18L343.13,320.959ZM356.579,297.665L453.205,353.452L446.458,365.137L349.832,309.35L356.579,297.665ZM370.162,274.139L466.788,329.926L459.192,343.082L362.566,287.295L370.162,274.139ZM383.7,250.69L480.326,306.477L471.926,321.026L375.3,265.239L383.7,250.69ZM397.149,227.396L493.774,283.183L485.107,298.197L388.481,242.41L397.149,227.396ZM410.642,204.025L507.268,259.812L497.84,276.141L401.214,220.354L410.642,204.025ZM424.091,180.732L520.716,236.519L510.797,253.699L414.172,197.912L424.091,180.732ZM437.584,157.36L534.21,213.147L523.755,231.256L427.129,175.469L437.584,157.36ZM450.988,134.144L547.614,189.931L536.712,208.814L440.086,153.027L450.988,134.144ZM464.526,110.695L561.152,166.482L549.669,186.371L453.043,130.584L464.526,110.695ZM477.841,87.634L574.466,143.421L562.626,163.929L466,108.142L477.841,87.634ZM632.035,-178.993C632.037,-180.096 632.931,-180.989 634.035,-180.989L720.113,-180.989C721.217,-180.989 722.113,-180.094 722.113,-178.989L722.113,-152.236C722.113,-151.692 721.895,-151.198 721.541,-150.837L695.688,-106.057L695.688,-67.011C695.688,-66.518 695.509,-66.066 695.213,-65.718L575.36,141.873L478.734,86.086L631.836,-179.093L632.035,-178.993ZM718.113,-154.236L718.113,-176.989L636.035,-176.989L636.035,-154.236L660.46,-154.236C661.564,-154.236 662.46,-153.341 662.46,-152.236L662.46,-69.011L691.688,-69.011L691.688,-152.236C691.688,-153.341 692.583,-154.236 693.688,-154.236L718.113,-154.236Z" style="fill:rgb(255,207,2);"/>
        </g>
    </g>
</svg>
