<?xml version="1.0" encoding="UTF-8" standalone="no"?>
<!DOCTYPE svg PUBLIC "-//W3C//DTD SVG 1.1//EN" "http://www.w3.org/Graphics/SVG/1.1/DTD/svg11.dtd">
<svg width="100%" height="100%" viewBox="0 0 546 794" version="1.1" xmlns="http://www.w3.org/2000/svg" xmlns:xlink="http://www.w3.org/1999/xlink" xml:space="preserve" xmlns:serif="http://www.serif.com/" style="fill-rule:evenodd;clip-rule:evenodd;stroke-linejoin:round;stroke-miterlimit:2;">
    <g transform="matrix(1,0,0,1,133.51,-228.276)">
        <g id="M" transform="matrix(1,0,0,1,-336.97,-1.11857)">
            <path d="M746.46,344.322L746.46,232.344L698.878,232.344L678.397,307.754L657.915,232.344L610.332,232.344L610.332,344.322L643.735,344.322L643.735,275.911L662.992,344.322L693.801,344.322L713.057,276.085L713.057,344.322L746.46,344.322Z" style="fill:white;fill-rule:nonzero;"/>
        </g>
        <g transform="matrix(1,0,0,1,-260.748,190.215)">
            <path d="M128.958,738.74L283.024,827.684L282.009,829.443L127.942,740.499L128.958,738.74ZM142.406,715.446L296.473,804.39L294.775,807.331L140.708,718.387L142.406,715.446ZM155.855,692.153L309.922,781.096L307.732,784.888L153.666,695.945L155.855,692.153ZM169.348,668.781L323.415,757.725L320.913,762.059L166.846,673.115L169.348,668.781ZM182.886,645.333L336.953,734.277L333.647,740.003L179.58,651.06L182.886,645.333ZM196.246,622.194L350.312,711.138L346.604,717.561L192.537,628.617L196.246,622.194ZM209.56,599.132L363.627,688.076L359.561,695.118L205.494,606.175L209.56,599.132ZM223.188,575.529L377.254,664.473L372.518,672.676L218.452,583.732L223.188,575.529ZM236.636,552.235L390.703,641.179L385.475,650.233L231.409,561.289L236.636,552.235ZM250.219,528.709L404.286,617.653L398.433,627.791L244.366,538.847L250.219,528.709ZM263.578,505.57L417.645,594.514L411.166,605.735L257.1,516.791L263.578,505.57ZM277.027,482.276L431.094,571.22L424.347,582.906L270.28,493.962L277.027,482.276ZM290.61,458.75L444.676,547.694L437.081,560.85L283.014,471.906L290.61,458.75ZM304.148,435.302L458.214,524.246L449.815,538.795L295.748,449.851L304.148,435.302ZM317.596,412.008L471.663,500.952L462.995,515.965L308.929,427.021L317.596,412.008ZM331.09,388.637L485.157,477.581L475.729,493.91L321.662,404.966L331.09,388.637ZM344.538,365.343L498.605,454.287L488.686,471.467L334.62,382.523L344.538,365.343ZM358.032,341.972L512.099,430.916L501.643,449.024L347.577,360.081L358.032,341.972ZM371.436,318.756L525.503,407.699L514.601,426.582L360.534,337.638L371.436,318.756ZM384.974,295.307L539.041,384.251L527.558,404.139L373.491,315.196L384.974,295.307ZM398.288,272.245L552.355,361.189L540.515,381.697L386.448,292.753L398.288,272.245ZM399.182,270.698C399.182,270.698 532.329,40.054 532.503,39.819C532.868,39.328 533.452,39.011 534.11,39.011L581.692,39.011C582.595,39.011 583.386,39.615 583.622,40.486L595.483,84.154C595.483,84.154 620.847,40.148 620.904,40.045C621.249,39.418 621.915,39.011 622.655,39.011L670.238,39.011C671.342,39.011 672.238,39.906 672.238,41.011L672.238,152.989C672.238,153.239 672.192,153.479 672.107,153.699C672.093,153.737 553.249,359.641 553.249,359.641L399.182,270.698ZM580.163,43.011L536.11,43.011L536.11,150.989L565.513,150.989L565.513,84.577C565.513,83.578 566.25,82.733 567.239,82.596C568.229,82.459 569.167,83.074 569.438,84.035L588.284,150.989L616.065,150.989L634.91,84.209C635.181,83.248 636.12,82.634 637.109,82.771C638.098,82.908 638.835,83.754 638.835,84.752L638.835,150.989L668.238,150.989L668.238,43.011L624.185,43.011L604.104,116.945C603.867,117.816 603.077,118.421 602.174,118.421C601.271,118.421 600.48,117.816 600.244,116.945L580.163,43.011Z" style="fill:rgb(14,213,254);"/>
        </g>
    </g>
</svg>
