<?xml version="1.0" encoding="UTF-8" standalone="no"?>
<!DOCTYPE svg PUBLIC "-//W3C//DTD SVG 1.1//EN" "http://www.w3.org/Graphics/SVG/1.1/DTD/svg11.dtd">
<svg width="100%" height="100%" viewBox="0 0 521 818" version="1.1" xmlns="http://www.w3.org/2000/svg" xmlns:xlink="http://www.w3.org/1999/xlink" xml:space="preserve" xmlns:serif="http://www.serif.com/" style="fill-rule:evenodd;clip-rule:evenodd;stroke-linejoin:round;stroke-miterlimit:2;">
    <g transform="matrix(1,0,0,1,-367.617,-228.276)">
        <g transform="matrix(155.12,0,0,155.12,786.142,343.564)">
            <path d="M0.336,0.017C0.505,0.017 0.644,-0.066 0.644,-0.222C0.644,-0.374 0.524,-0.421 0.404,-0.45C0.297,-0.476 0.236,-0.482 0.236,-0.524C0.236,-0.553 0.268,-0.574 0.314,-0.574C0.371,-0.574 0.399,-0.549 0.405,-0.51L0.612,-0.51C0.609,-0.666 0.473,-0.728 0.325,-0.728C0.164,-0.728 0.03,-0.666 0.03,-0.502C0.03,-0.35 0.175,-0.309 0.295,-0.279C0.383,-0.257 0.431,-0.246 0.431,-0.203C0.431,-0.16 0.381,-0.144 0.34,-0.144C0.271,-0.144 0.227,-0.171 0.22,-0.228L0.006,-0.228C0.009,-0.063 0.15,0.017 0.336,0.017Z" style="fill:white;fill-rule:nonzero;"/>
        </g>
        <path id="S" d="M467.52,1044.04L466.501,1045.8L367.617,988.71L368.636,986.945L467.52,1044.04ZM481.016,1020.66L479.312,1023.61L380.428,966.521L382.132,963.569L481.016,1020.66ZM494.512,997.285L492.315,1001.09L393.431,943.999L395.628,940.194L494.512,997.285ZM508.053,973.832L505.542,978.181L406.658,921.09L409.169,916.741L508.053,973.832ZM521.638,950.301L518.32,956.048L419.436,898.957L422.754,893.21L521.638,950.301ZM535.044,927.081L531.323,933.526L432.439,876.436L436.16,869.99L535.044,927.081ZM548.406,903.938L544.326,911.005L445.442,853.915L449.522,846.848L548.406,903.938ZM562.081,880.252L557.328,888.484L458.444,831.393L463.197,823.161L562.081,880.252ZM575.577,856.877L570.331,865.963L471.447,808.872L476.693,799.786L575.577,856.877ZM589.207,833.268L583.333,843.442L484.449,786.351L490.323,776.178L589.207,833.268ZM602.613,810.048L596.112,821.309L497.228,764.218L503.729,752.957L602.613,810.048ZM616.109,786.673L609.339,798.399L510.455,741.309L517.225,729.582L616.109,786.673ZM629.739,763.064L622.117,776.266L523.233,719.176L530.855,705.974L629.739,763.064ZM643.325,739.533L634.896,754.133L536.012,697.043L544.441,682.443L643.325,739.533ZM656.821,716.158L648.122,731.224L549.238,674.133L557.937,659.067L656.821,716.158ZM670.361,692.705L660.901,709.091L562.017,652L571.477,635.614L670.361,692.705ZM683.857,669.329L673.903,686.57L575.019,629.479L584.973,612.239L683.857,669.329ZM697.398,645.876L686.906,664.049L588.022,606.958L598.514,588.786L697.398,645.876ZM710.849,622.579L699.909,641.527L601.025,584.437L611.965,565.488L710.849,622.579ZM724.434,599.048L712.911,619.006L614.027,561.916L625.55,541.957L724.434,599.048ZM737.796,575.905L725.914,596.485L627.03,539.394L638.912,518.815L737.796,575.905ZM639.808,517.261L789.467,258.044C791.152,250 795.54,242.478 802.182,237.678C818.007,226.243 840.775,226.748 856.109,231.257C866.361,234.27 875.992,240.978 880.223,250.667C882.067,254.89 882.941,259.517 883.061,264.108C883.091,265.243 882.708,266.324 881.068,266.443L879.392,266.443L871.537,280.048C877.633,283.74 882.87,288.837 885.574,295.505C891.021,308.936 887.598,325.471 876.522,335.625L738.692,574.352L639.808,517.261ZM836.268,232.647C820.61,232.717 803.332,235.894 795.914,251.001C790.894,261.226 791.525,274.634 799.05,283.041C811.891,297.388 834.899,296.29 848.97,303.42C854.658,306.302 857.284,314.915 851.235,319.658C846.351,323.489 839.153,323.785 833.172,322.802C826.594,321.72 820.214,317.568 818.576,310.231C818.576,310.231 789.168,310.203 789.168,310.203C789.784,319.142 793.693,327.569 800.818,333.388C812.794,343.168 829.342,345.13 844.156,343.963C857.976,342.874 872.269,337.584 879.464,325.977C886.943,313.913 885.384,296.482 874.828,287.22C863.61,277.378 846.931,275.851 832.489,271.93C827.272,270.514 821.109,268.805 820.754,262.767C820.355,255.96 829.564,251.926 837.396,252.626C843.064,253.132 848.868,256.165 850.587,262.413C850.587,262.413 878.976,262.443 878.976,262.443C878.886,261.171 878.725,259.898 878.491,258.639C877.397,252.756 874.462,247.239 870.03,243.169C860.976,234.855 847.81,232.629 836.268,232.647Z" style="fill:rgb(255,207,2);"/>
    </g>
</svg>
