<?xml version="1.0" encoding="UTF-8" standalone="no"?>
<!DOCTYPE svg PUBLIC "-//W3C//DTD SVG 1.1//EN" "http://www.w3.org/Graphics/SVG/1.1/DTD/svg11.dtd">
<svg width="100%" height="100%" viewBox="0 0 540 794" version="1.1" xmlns="http://www.w3.org/2000/svg" xmlns:xlink="http://www.w3.org/1999/xlink" xml:space="preserve" xmlns:serif="http://www.serif.com/" style="fill-rule:evenodd;clip-rule:evenodd;stroke-linejoin:round;stroke-miterlimit:2;">
    <g transform="matrix(1,0,0,1,127.51,-228.276)">
        <g id="Y" transform="matrix(1,0,0,1,-668.77,-1.11857)">
            <path d="M1078.26,232.344L1039.93,232.344L1019.82,278.01L1000.93,232.344L963.482,232.344L1002.68,309.504L1002.68,344.322L1037.13,344.322L1037.13,309.504L1078.26,232.344Z" style="fill:white;fill-rule:nonzero;"/>
        </g>
        <g id="Y1" serif:id="Y" transform="matrix(1,0,0,1,-592.548,190.215)">
            <path d="M466.521,765.835L573.647,827.684L572.631,829.443L465.505,767.594L466.521,765.835ZM479.969,742.541L587.095,804.39L585.397,807.331L478.272,745.482L479.969,742.541ZM493.418,719.247L600.544,781.096L598.355,784.888L491.229,723.039L493.418,719.247ZM506.911,695.876L614.037,757.725L611.535,762.059L504.409,700.21L506.911,695.876ZM520.449,672.427L627.575,734.277L624.269,740.003L517.143,678.154L520.449,672.427ZM533.809,649.288L640.935,711.138L637.226,717.561L530.1,655.712L533.809,649.288ZM547.123,626.227L654.249,688.076L650.183,695.118L543.057,633.269L547.123,626.227ZM560.751,602.624L667.877,664.473L663.141,672.676L556.015,610.827L560.751,602.624ZM574.199,579.33L681.325,641.179L676.098,650.233L568.972,588.384L574.199,579.33ZM587.782,555.804L694.908,617.653L689.055,627.791L581.929,565.942L587.782,555.804ZM601.141,532.665L708.267,594.514L701.789,605.735L594.663,543.886L601.141,532.665ZM614.59,509.371L721.716,571.22L714.969,582.906L607.843,521.057L614.59,509.371ZM628.173,485.845L735.299,547.694L727.703,560.85L620.577,499.001L628.173,485.845ZM641.711,462.396L748.837,524.246L740.437,538.795L633.311,476.945L641.711,462.396ZM655.16,439.103L762.285,500.952L753.618,515.965L646.492,454.116L655.16,439.103ZM668.653,415.731L775.779,477.581L766.351,493.91L659.225,432.06L668.653,415.731ZM682.102,392.438L789.227,454.287L779.309,471.467L672.183,409.618L682.102,392.438ZM695.595,369.067L802.721,430.916L792.266,449.024L685.14,387.175L695.595,369.067ZM708.999,345.85L816.125,407.699L805.223,426.582L698.097,364.733L708.999,345.85ZM722.537,322.402L829.663,384.251L818.18,404.139L711.054,342.29L722.537,322.402ZM735.852,299.34L842.977,361.189L831.137,381.697L724.011,319.848L735.852,299.34ZM736.745,297.792C736.745,297.792 885.474,40.097 885.555,39.965C885.919,39.372 886.564,39.011 887.26,39.011L924.71,39.011C925.519,39.011 926.249,39.498 926.558,40.246L941.286,75.852C941.286,75.852 961.986,40.001 962.008,39.965C962.368,39.377 963.011,39.011 963.713,39.011L1002.04,39.011C1002.74,39.011 1003.39,39.379 1003.75,39.981C1004.11,40.584 1004.13,41.331 1003.8,41.951L962.913,118.67L962.913,152.989C962.913,153.32 962.832,153.632 962.69,153.907C962.618,154.045 843.871,359.641 843.871,359.641L736.745,297.792ZM923.373,43.011L890.519,43.011L928.243,117.265C928.385,117.545 928.46,117.856 928.46,118.171L928.46,150.989L958.913,150.989L958.913,118.171C958.913,117.842 958.994,117.519 959.148,117.23L998.706,43.011L965.017,43.011L945.429,87.483C945.106,88.216 944.377,88.686 943.576,88.677C942.775,88.668 942.057,88.181 941.751,87.441L923.373,43.011Z" style="fill:rgb(237,80,127);"/>
        </g>
    </g>
</svg>
