<?xml version="1.0" encoding="UTF-8" standalone="no"?>
<!DOCTYPE svg PUBLIC "-//W3C//DTD SVG 1.1//EN" "http://www.w3.org/Graphics/SVG/1.1/DTD/svg11.dtd">
<svg width="100%" height="100%" viewBox="0 0 514 807" version="1.1" xmlns="http://www.w3.org/2000/svg" xmlns:xlink="http://www.w3.org/1999/xlink" xml:space="preserve" xmlns:serif="http://www.serif.com/" style="fill-rule:evenodd;clip-rule:evenodd;stroke-linejoin:round;stroke-miterlimit:2;">
    <g transform="matrix(1,0,0,1,101.51,-228.276)">
        <g transform="matrix(155.12,0,0,155.12,310.388,343.564)">
            <path d="M0.336,0.017C0.505,0.017 0.644,-0.066 0.644,-0.222C0.644,-0.374 0.524,-0.421 0.404,-0.45C0.297,-0.476 0.236,-0.482 0.236,-0.524C0.236,-0.553 0.268,-0.574 0.314,-0.574C0.371,-0.574 0.399,-0.549 0.405,-0.51L0.612,-0.51C0.609,-0.666 0.473,-0.728 0.325,-0.728C0.164,-0.728 0.03,-0.666 0.03,-0.502C0.03,-0.35 0.175,-0.309 0.295,-0.279C0.383,-0.257 0.431,-0.246 0.431,-0.203C0.431,-0.16 0.381,-0.144 0.34,-0.144C0.271,-0.144 0.227,-0.171 0.22,-0.228L0.006,-0.228C0.009,-0.063 0.15,0.017 0.336,0.017Z" style="fill:white;fill-rule:nonzero;"/>
        </g>
        <path d="M-1.76,1032.9L-2.779,1034.67L-101.51,977.667L-100.491,975.902L-1.76,1032.9ZM11.736,1009.53L10.032,1012.48L-88.699,955.477L-86.995,952.526L11.736,1009.53ZM25.232,986.153L23.035,989.958L-75.696,932.956L-73.499,929.151L25.232,986.153ZM38.772,962.7L36.261,967.049L-62.469,910.047L-59.958,905.698L38.772,962.7ZM52.358,939.169L49.04,944.916L-49.691,887.914L-46.373,882.167L52.358,939.169ZM65.764,915.949L62.043,922.395L-36.688,865.393L-32.967,858.947L65.764,915.949ZM79.125,892.807L75.045,899.874L-23.686,842.871L-19.605,835.804L79.125,892.807ZM92.8,869.121L88.048,877.352L-10.683,820.35L-5.93,812.118L92.8,869.121ZM106.296,845.745L101.05,854.831L2.32,797.829L7.566,788.743L106.296,845.745ZM119.927,822.137L114.053,832.31L15.322,775.308L21.196,765.134L119.927,822.137ZM133.333,798.917L126.831,810.177L28.101,753.175L34.602,741.914L133.333,798.917ZM146.829,775.541L140.058,787.268L41.328,730.265L48.098,718.539L146.829,775.541ZM160.459,751.933L152.837,765.135L54.106,708.133L61.728,694.93L160.459,751.933ZM174.044,728.402L165.615,743.002L66.884,686L75.314,671.4L174.044,728.402ZM187.54,705.026L178.842,720.092L80.111,663.09L88.809,648.024L187.54,705.026ZM201.081,681.573L191.62,697.959L92.89,640.957L102.35,624.571L201.081,681.573ZM214.577,658.198L204.623,675.438L105.892,618.436L115.846,601.196L214.577,658.198ZM228.117,634.745L217.626,652.917L118.895,595.915L129.387,577.743L228.117,634.745ZM241.568,611.447L230.628,630.396L131.897,573.394L142.838,554.445L241.568,611.447ZM255.154,587.916L243.631,607.875L144.9,550.872L156.423,530.914L255.154,587.916ZM268.515,564.774L256.633,585.353L157.903,528.351L169.784,507.772L268.515,564.774ZM170.681,506.218L313.583,258.705C315.161,250.413 319.606,242.609 326.429,237.678C342.253,226.243 365.021,226.749 380.356,231.257C390.682,234.292 400.421,240.964 404.668,251.131C406.379,255.227 407.192,259.655 407.308,264.108C407.338,265.25 406.944,266.324 405.315,266.443L404.034,266.443L396.08,280.22C401.918,283.806 406.938,288.694 409.642,295.073C415.334,308.505 411.875,325.334 400.869,335.529L269.412,563.221L170.681,506.218ZM360.515,232.647C344.857,232.717 327.58,235.894 320.161,251.001C315.14,261.225 315.773,274.636 323.296,283.041C336.138,297.388 359.146,296.29 373.217,303.42C378.885,306.292 381.589,314.868 375.482,319.658C370.601,323.487 363.4,323.784 357.419,322.802C350.83,321.719 344.463,317.568 342.822,310.231C342.822,310.231 313.415,310.203 313.415,310.203C314.03,319.149 317.94,327.57 325.065,333.388C337.042,343.167 353.589,345.13 368.403,343.963C382.223,342.874 396.515,337.584 403.711,325.977C411.179,313.931 409.683,296.529 399.075,287.22C387.858,277.377 371.178,275.851 356.736,271.93C351.519,270.514 345.355,268.805 345.001,262.766C344.603,255.953 353.81,251.926 361.643,252.626C367.314,253.133 373.115,256.172 374.834,262.413C374.834,262.413 403.223,262.443 403.223,262.443C403.133,261.171 402.972,259.898 402.738,258.639C401.645,252.763 398.738,247.265 394.277,243.169C385.281,234.909 372.441,232.629 360.515,232.647Z" style="fill:rgb(253,208,0);"/>
    </g>
</svg>
