<?xml version="1.0" encoding="UTF-8" standalone="no"?>
<!DOCTYPE svg PUBLIC "-//W3C//DTD SVG 1.1//EN" "http://www.w3.org/Graphics/SVG/1.1/DTD/svg11.dtd">
<svg width="100%" height="100%" viewBox="0 0 509 794" version="1.1" xmlns="http://www.w3.org/2000/svg" xmlns:xlink="http://www.w3.org/1999/xlink" xml:space="preserve" xmlns:serif="http://www.serif.com/" style="fill-rule:evenodd;clip-rule:evenodd;stroke-linejoin:round;stroke-miterlimit:2;">
    <g transform="matrix(1,0,0,1,96.51,-228.276)">
        <g id="S" transform="matrix(1,0,0,1,-566.395,0.631428)">
            <path d="M975.885,309.34C975.885,268.376 915.864,281.156 913.587,266.976C912.536,260.849 915.163,255.947 926.021,255.947C937.754,255.947 941.607,260.499 941.607,270.827L974.661,270.827C974.661,248.254 963.469,230.594 926.896,230.594C891.025,230.594 879.482,248.254 880.182,268.026C881.406,306.889 943.007,293.41 943.007,310.215C943.007,314.242 941.256,320.544 928.647,320.544C916.039,320.544 911.485,314.592 911.485,303.038L877.907,303.038C877.907,330.51 891.898,346.072 929.348,346.072C965.217,346.072 975.885,325.789 975.885,309.34Z" style="fill:white;fill-rule:nonzero;"/>
        </g>
        <g id="S1" serif:id="S" transform="matrix(1,0,0,1,-1094.45,191.965)">
            <path d="M999.856,768.714L1102,827.684L1100.98,829.443L998.84,770.473L999.856,768.714ZM1013.31,745.42L1115.44,804.39L1113.75,807.331L1011.61,748.361L1013.31,745.42ZM1026.75,722.126L1128.89,781.096L1126.7,784.888L1024.56,725.918L1026.75,722.126ZM1040.25,698.755L1142.39,757.725L1139.88,762.059L1037.75,703.089L1040.25,698.755ZM1053.79,675.306L1155.92,734.277L1152.62,740.003L1050.48,681.033L1053.79,675.306ZM1067.14,652.167L1169.28,711.138L1165.58,717.561L1063.44,658.591L1067.14,652.167ZM1080.46,629.106L1182.6,688.076L1178.53,695.118L1076.39,636.148L1080.46,629.106ZM1094.09,605.502L1196.23,664.473L1191.49,672.676L1089.35,613.706L1094.09,605.502ZM1107.54,582.209L1209.67,641.179L1204.45,650.233L1102.31,591.263L1107.54,582.209ZM1121.12,558.683L1223.26,617.653L1217.4,627.791L1115.26,568.821L1121.12,558.683ZM1134.48,535.544L1236.62,594.514L1230.14,605.735L1128,546.765L1134.48,535.544ZM1147.92,512.25L1250.07,571.22L1243.32,582.906L1141.18,523.936L1147.92,512.25ZM1161.51,488.724L1263.65,547.694L1256.05,560.85L1153.91,501.88L1161.51,488.724ZM1175.05,465.275L1277.18,524.246L1268.79,538.795L1166.65,479.824L1175.05,465.275ZM1188.5,441.982L1290.63,500.952L1281.97,515.965L1179.83,456.995L1188.5,441.982ZM1201.99,418.61L1304.13,477.581L1294.7,493.91L1192.56,434.939L1201.99,418.61ZM1215.44,395.317L1317.58,454.287L1307.66,471.467L1205.52,412.497L1215.44,395.317ZM1228.93,371.946L1331.07,430.916L1320.61,449.024L1218.48,390.054L1228.93,371.946ZM1242.33,348.729L1344.47,407.699L1333.57,426.582L1231.43,367.612L1242.33,348.729ZM1255.87,325.281L1358.01,384.251L1346.53,404.139L1244.39,345.169L1255.87,325.281ZM1269.19,302.219L1371.33,361.189L1359.49,381.697L1257.35,322.727L1269.19,302.219ZM1270.08,300.671C1270.08,300.671 1409.76,58.284 1410.23,57.378C1411.81,54.374 1413.88,51.591 1416.5,49.109C1424.06,41.96 1436.33,37.261 1454.95,37.261C1473.94,37.261 1486.3,41.971 1493.95,49.485C1501.69,57.09 1504.71,67.632 1504.71,79.494C1504.71,79.832 1504.63,80.15 1504.48,80.429C1504.42,80.552 1496.12,94.853 1496.12,94.853C1502.03,99.943 1505.94,107.233 1505.94,118.007C1505.94,124.209 1504.5,130.923 1500.93,136.999C1500.44,137.817 1372.22,359.641 1372.22,359.641L1270.08,300.671ZM1500.68,77.494C1500.37,67.592 1497.7,58.777 1491.14,52.339C1484.06,45.38 1472.53,41.261 1454.95,41.261C1437.69,41.261 1426.26,45.39 1419.25,52.015C1412.4,58.495 1409.9,67.32 1410.23,76.63C1410.64,89.666 1418.41,96.333 1428.1,100.32C1434.91,103.122 1442.66,104.634 1449.68,106.001C1457.07,107.44 1463.68,108.764 1467.8,111.055C1471.18,112.935 1473.06,115.459 1473.06,118.882C1473.06,121.32 1472.48,124.43 1470.05,126.948C1467.78,129.286 1463.79,131.211 1456.7,131.211C1449.68,131.211 1444.95,129.415 1441.92,126.149C1439.24,123.252 1437.85,119.109 1437.59,113.705L1407.99,113.705C1408.31,125.833 1411.59,135.421 1418.97,142.034C1426.87,149.106 1439.32,152.739 1457.4,152.739C1474.63,152.739 1485.84,147.971 1492.71,141.125C1499.44,134.411 1501.94,125.754 1501.94,118.007C1501.94,94.629 1481.1,90.002 1464.18,86.849C1456.9,85.491 1450.26,84.419 1445.89,82.547C1442.3,81.001 1440.13,78.837 1439.67,75.981C1439.03,72.234 1439.63,68.892 1441.94,66.456C1444.09,64.184 1447.88,62.614 1454.07,62.614C1460.64,62.614 1464.96,64.046 1467.68,66.766C1470.1,69.184 1471.35,72.7 1471.61,77.494L1500.68,77.494Z" style="fill:rgb(237,80,127);"/>
        </g>
    </g>
</svg>
