<?xml version="1.0" encoding="UTF-8" standalone="no"?>
<!DOCTYPE svg PUBLIC "-//W3C//DTD SVG 1.1//EN" "http://www.w3.org/Graphics/SVG/1.1/DTD/svg11.dtd">
<svg width="100%" height="100%" viewBox="0 0 512 794" version="1.1" xmlns="http://www.w3.org/2000/svg" xmlns:xlink="http://www.w3.org/1999/xlink" xml:space="preserve" xmlns:serif="http://www.serif.com/" style="fill-rule:evenodd;clip-rule:evenodd;stroke-linejoin:round;stroke-miterlimit:2;">
    <g transform="matrix(1,0,0,1,99.51,-228.276)">
        <g id="C" transform="matrix(1,0,0,1,-64.6704,0.631428)">
            <path d="M474.16,296.911L440.56,296.911C438.46,313.717 433.91,319.144 422.535,319.144C405.21,319.144 403.81,304.964 403.81,288.333C403.81,271.702 406.085,257.697 422.535,257.697C433.735,257.697 438.81,263.124 440.56,279.405L474.16,279.405C474.16,253.151 461.035,230.594 422.535,230.594C378.102,230.594 369.882,260.323 369.882,288.333C369.882,316.343 377.927,346.072 422.535,346.072C461.21,346.072 474.16,324.39 474.16,296.911Z" style="fill:white;fill-rule:nonzero;"/>
        </g>
        <g id="C1" serif:id="C" transform="matrix(1,0,0,1,11.5522,191.965)">
            <path d="M-109.372,768.505L-6.87,827.684L-7.886,829.443L-110.387,770.264L-109.372,768.505ZM-95.923,745.211L6.578,804.39L4.88,807.331L-97.621,748.152L-95.923,745.211ZM-82.474,721.917L20.027,781.096L17.838,784.888L-84.664,725.709L-82.474,721.917ZM-68.981,698.546L33.52,757.725L31.018,762.059L-71.483,702.88L-68.981,698.546ZM-55.443,675.097L47.058,734.277L43.752,740.003L-58.749,680.824L-55.443,675.097ZM-42.084,651.958L60.418,711.138L56.709,717.561L-45.792,658.382L-42.084,651.958ZM-28.769,628.897L73.732,688.076L69.666,695.118L-32.835,635.939L-28.769,628.897ZM-15.142,605.294L87.36,664.473L82.624,672.676L-19.878,613.497L-15.142,605.294ZM-1.693,582L100.808,641.179L95.581,650.233L-6.921,591.054L-1.693,582ZM11.89,558.474L114.391,617.653L108.538,627.791L6.037,568.612L11.89,558.474ZM25.249,535.335L127.75,594.514L121.272,605.735L18.77,546.556L25.249,535.335ZM38.698,512.041L141.199,571.22L134.452,582.906L31.951,523.727L38.698,512.041ZM52.28,488.515L154.782,547.694L147.186,560.85L44.685,501.671L52.28,488.515ZM65.818,465.066L168.32,524.246L159.92,538.795L57.419,479.615L65.818,465.066ZM79.267,441.773L181.768,500.952L173.101,515.965L70.599,456.786L79.267,441.773ZM92.76,418.401L195.262,477.581L185.834,493.91L83.333,434.73L92.76,418.401ZM106.209,395.108L208.71,454.287L198.791,471.467L96.29,412.288L106.209,395.108ZM119.703,371.737L222.204,430.916L211.749,449.024L109.247,389.845L119.703,371.737ZM133.107,348.52L235.608,407.699L224.706,426.582L122.205,367.403L133.107,348.52ZM146.645,325.072L249.146,384.251L237.663,404.139L135.162,344.96L146.645,325.072ZM159.959,302.01L262.46,361.189L250.62,381.697L148.119,322.518L159.959,302.01ZM160.853,300.462C160.853,300.462 299.037,60.783 299.685,59.654C301.702,56.143 304.182,52.912 307.214,50.061C315.486,42.282 327.88,37.261 346.313,37.261C366.29,37.261 379.645,43.219 388.044,52.477C396.46,61.754 399.938,74.421 399.938,88.072C399.938,88.369 399.873,88.651 399.757,88.904C399.647,89.144 391.192,103.578 391.192,103.578L397.938,103.578C399.042,103.578 399.938,104.473 399.938,105.578C399.938,115.948 398.123,125.51 393.915,133.495C393.17,134.909 263.354,359.641 263.354,359.641L160.853,300.462ZM395.911,86.072C395.597,74.23 392.44,63.275 385.082,55.165C377.293,46.58 364.836,41.261 346.313,41.261C329.198,41.261 317.635,45.752 309.954,52.975C298.384,63.854 295.66,80.749 295.66,97C295.66,113.251 298.321,130.146 309.879,141.025C317.552,148.248 329.13,152.739 346.313,152.739C364.922,152.739 377.383,147.637 385.15,139.115C392.511,131.04 395.617,119.97 395.914,107.578L366.087,107.578C364.69,117.331 362.237,123.169 358.216,126.386C355.254,128.757 351.406,129.811 346.313,129.811C327.665,129.811 325.588,114.901 325.588,97C325.588,79.093 328.601,64.364 346.313,64.364C351.314,64.364 355.201,65.406 358.214,67.733C362.323,70.905 364.886,76.623 366.114,86.072L395.911,86.072Z" style="fill:rgb(14,213,254);"/>
        </g>
    </g>
</svg>
