<?xml version="1.0" encoding="UTF-8" standalone="no"?>
<!DOCTYPE svg PUBLIC "-//W3C//DTD SVG 1.1//EN" "http://www.w3.org/Graphics/SVG/1.1/DTD/svg11.dtd">
<svg width="100%" height="100%" viewBox="0 0 576 816" version="1.1" xmlns="http://www.w3.org/2000/svg" xmlns:xlink="http://www.w3.org/1999/xlink" xml:space="preserve" xmlns:serif="http://www.serif.com/" style="fill-rule:evenodd;clip-rule:evenodd;stroke-linejoin:round;stroke-miterlimit:2;">
    <g transform="matrix(1,0,0,1,-214.559,-230.663)">
        <g transform="matrix(155.12,0,0,155.12,638.157,343.564)">
            <path d="M0.178,0L0.392,0L0.454,-0.303C0.467,-0.365 0.479,-0.442 0.479,-0.442L0.481,-0.442C0.481,-0.442 0.493,-0.365 0.506,-0.303L0.57,0L0.781,0L0.969,-0.715L0.755,-0.715L0.703,-0.472C0.686,-0.392 0.667,-0.271 0.667,-0.271L0.665,-0.271C0.665,-0.271 0.647,-0.379 0.629,-0.462L0.574,-0.715L0.385,-0.715L0.33,-0.46C0.312,-0.378 0.293,-0.271 0.293,-0.271L0.291,-0.271C0.291,-0.271 0.273,-0.392 0.256,-0.47L0.204,-0.715L-0.005,-0.715L0.178,0Z" style="fill:white;fill-rule:nonzero;"/>
        </g>
        <path id="W" d="M355.395,1044.25L354.376,1046.02L214.559,965.294L215.578,963.529L355.395,1044.25ZM368.891,1020.88L367.187,1023.83L227.37,943.104L229.074,940.153L368.891,1020.88ZM382.387,997.501L380.19,1001.31L240.373,920.583L242.57,916.778L382.387,997.501ZM395.928,974.048L393.417,978.397L253.6,897.674L256.111,893.325L395.928,974.048ZM409.513,950.517L406.195,956.264L266.378,875.541L269.696,869.794L409.513,950.517ZM422.919,927.297L419.198,933.743L279.381,853.02L283.102,846.574L422.919,927.297ZM436.281,904.155L432.201,911.222L292.384,830.498L296.464,823.431L436.281,904.155ZM449.956,880.469L445.203,888.701L305.386,807.977L310.139,799.745L449.956,880.469ZM463.452,857.093L458.206,866.179L318.389,785.456L323.635,776.37L463.452,857.093ZM477.082,833.485L471.208,843.658L331.391,762.935L337.265,752.761L477.082,833.485ZM490.488,810.265L483.987,821.525L344.17,740.802L350.671,729.541L490.488,810.265ZM503.984,786.889L497.214,798.616L357.397,717.892L364.167,706.166L503.984,786.889ZM517.614,763.281L509.992,776.483L370.175,695.759L377.797,682.557L517.614,763.281ZM531.2,739.75L522.771,754.35L382.954,673.627L391.383,659.027L531.2,739.75ZM544.696,716.375L535.997,731.44L396.18,650.717L404.879,635.651L544.696,716.375ZM558.236,692.921L548.776,709.308L408.959,628.584L418.419,612.198L558.236,692.921ZM571.732,669.546L561.778,686.786L421.961,606.063L431.915,588.823L571.732,669.546ZM585.273,646.093L574.781,664.265L434.964,583.542L445.456,565.369L585.273,646.093ZM598.724,622.795L587.784,641.744L447.967,561.021L458.907,542.072L598.724,622.795ZM612.309,599.264L600.786,619.223L460.969,538.499L472.492,518.541L612.309,599.264ZM625.671,576.122L613.789,596.702L473.972,515.978L485.854,495.398L625.671,576.122ZM486.75,493.845L636.008,235.324L635.454,233.159C635.294,232.216 635.431,232.155 635.558,231.863C635.851,231.193 636.171,230.764 637.391,230.663L669.807,230.663C671.258,230.787 671.388,231.007 671.764,232.248C674.134,243.416 676.618,254.568 678.913,265.722L694.543,238.65L695.926,232.241C695.926,232.241 696.265,230.801 697.881,230.663L727.195,230.663C727.195,230.663 727.504,230.684 727.86,230.777C729.004,231.293 728.955,231.607 729.149,232.238C731.527,243.176 733.992,254.099 736.325,265.034L752.168,237.593L753.312,232.245C753.312,232.245 753.957,230.775 755.268,230.663L788.459,230.663C790.658,230.846 790.635,231.794 790.393,233.172L761.235,344.063C760.768,345.387 760.548,345.452 759.301,345.554L758.789,345.554L626.567,574.569L486.75,493.845ZM668.187,234.663L639.968,234.663L667.327,341.554L697.334,341.554C701.838,319.544 706.816,297.679 710.401,275.221C710.401,275.221 711.312,272.747 713.083,273.028C714.493,273.251 714.806,275.083 715.067,276.699C716.104,283.055 717.209,289.399 718.512,295.702L718.605,296.15L728.196,341.554L757.759,341.554L785.865,234.663L756.885,234.663C752.215,256.487 747.402,278.278 743.883,300.028L743.521,302.142C742.724,304.065 739.872,304.001 739.337,301.856C737.708,292.18 735.953,282.524 733.901,272.927L733.771,272.325L725.583,234.663L699.495,234.663C694.722,256.792 689.731,278.859 685.712,301.14C685.712,301.14 684.852,303.796 682.986,303.499C681.294,303.229 681.162,300.746 680.847,298.71C679.405,289.465 677.895,280.226 675.917,271.079L668.187,234.663Z" style="fill:rgb(1,191,179);"/>
    </g>
</svg>
