<?xml version="1.0" encoding="UTF-8" standalone="no"?>
<!DOCTYPE svg PUBLIC "-//W3C//DTD SVG 1.1//EN" "http://www.w3.org/Graphics/SVG/1.1/DTD/svg11.dtd">
<svg width="100%" height="100%" viewBox="0 0 523 805" version="1.1" xmlns="http://www.w3.org/2000/svg" xmlns:xlink="http://www.w3.org/1999/xlink" xml:space="preserve" xmlns:serif="http://www.serif.com/" style="fill-rule:evenodd;clip-rule:evenodd;stroke-linejoin:round;stroke-miterlimit:2;">
    <g transform="matrix(1,0,0,1,-119.8,-228.647)">
        <g transform="matrix(155.12,0,0,155.12,524.764,343.564)">
            <path d="M0.377,0.017C0.599,0.017 0.741,-0.141 0.741,-0.355C0.741,-0.569 0.599,-0.728 0.377,-0.728C0.155,-0.728 0.015,-0.569 0.015,-0.355C0.015,-0.141 0.155,0.017 0.377,0.017ZM0.378,-0.15C0.278,-0.15 0.227,-0.238 0.227,-0.355C0.227,-0.472 0.278,-0.561 0.378,-0.561C0.478,-0.561 0.529,-0.472 0.529,-0.355C0.529,-0.238 0.478,-0.15 0.378,-0.15Z" style="fill:white;fill-rule:nonzero;"/>
        </g>
        <path id="O" d="M220.77,1031.48L219.751,1033.24L119.8,975.537L120.819,973.772L220.77,1031.48ZM234.266,1008.1L232.562,1011.05L132.611,953.347L134.315,950.396L234.266,1008.1ZM247.762,984.727L245.565,988.533L145.614,930.826L147.811,927.021L247.762,984.727ZM261.303,961.274L258.792,965.623L158.841,907.916L161.352,903.568L261.303,961.274ZM274.888,937.743L271.57,943.49L171.619,885.784L174.937,880.037L274.888,937.743ZM288.294,914.523L284.573,920.969L184.622,863.262L188.343,856.817L288.294,914.523ZM301.656,891.381L297.576,898.448L197.625,840.741L201.705,833.674L301.656,891.381ZM315.331,867.695L310.578,875.927L210.627,818.22L215.38,809.988L315.331,867.695ZM328.827,844.319L323.581,853.405L223.63,795.699L228.876,786.613L328.827,844.319ZM342.457,820.711L336.583,830.884L236.632,773.178L242.506,763.004L342.457,820.711ZM355.863,797.491L349.362,808.751L249.411,751.045L255.912,739.784L355.863,797.491ZM369.359,774.115L362.589,785.842L262.638,728.135L269.408,716.409L369.359,774.115ZM382.989,750.507L375.367,763.709L275.416,706.002L283.038,692.8L382.989,750.507ZM396.575,726.976L388.146,741.576L288.195,683.869L296.624,669.269L396.575,726.976ZM410.071,703.601L401.372,718.667L301.421,660.96L310.12,645.894L410.071,703.601ZM423.611,680.148L414.151,696.534L314.2,638.827L323.66,622.441L423.611,680.148ZM437.107,656.772L427.153,674.012L327.202,616.306L337.156,599.065L437.107,656.772ZM450.648,633.319L440.156,651.491L340.205,593.785L350.697,575.612L450.648,633.319ZM464.099,610.021L453.159,628.97L353.208,571.263L364.148,552.314L464.099,610.021ZM477.684,586.49L466.161,606.449L366.21,548.742L377.733,528.784L477.684,586.49ZM491.046,563.348L479.164,583.928L379.213,526.221L391.095,505.641L491.046,563.348ZM391.991,504.088L527.832,268.805C531.535,256.434 538.906,245.312 550.084,237.962C559.676,231.655 571.223,228.745 582.83,228.648C583.106,228.647 583.383,228.647 583.659,228.648C600.846,228.792 618.165,235.685 629.018,249.409C647.724,273.066 645.828,312.07 624.086,332.915L491.942,561.795L391.991,504.088ZM582.853,232.648C562.086,232.823 541.918,243.708 533.51,264.575C524.385,287.226 528.933,315.957 547.163,331.72C566.648,348.569 599.36,348.521 618.971,332.13C644.999,310.376 644.402,261.264 614.576,241.486C605.285,235.325 593.736,232.617 582.853,232.648ZM583.595,254.533C590.235,254.602 596.725,257.361 601.117,262.632C608.56,271.564 609.718,284.076 608.472,295.102C607.209,306.282 602.018,318.067 590.194,321.403C581.493,323.857 571.567,321.383 565.577,314.144C558.151,305.171 557.076,292.607 558.351,281.679C559.877,268.599 567.41,254.809 583.009,254.535C583.205,254.533 583.4,254.532 583.595,254.533Z" style="fill:rgb(14,213,254);"/>
    </g>
</svg>
